<?xml version="1.0" encoding="utf-8"?>
<svg id="master-artboard" viewBox="0 0 1400 1400" version="1.1" xmlns="http://www.w3.org/2000/svg" x="0px" y="0px" style="enable-background:new 0 0 1400 1400;" width="1400px" height="1400px">

<linearGradient id="SVGID_1_" gradientUnits="userSpaceOnUse" x1="1360.4459" y1="1360.4459" x2="23.7826" y2="23.7826">
		<stop offset="0" style="stop-color:#1D00AD"/>
		<stop offset="0.3199" style="stop-color:#3901FF"/>
		<stop offset="0.4577" style="stop-color:#453DF7"/>
		<stop offset="0.6545" style="stop-color:#548CEB"/>
		<stop offset="0.8169" style="stop-color:#5FC6E3"/>
		<stop offset="0.9363" style="stop-color:#66E9DE"/>
		<stop offset="1" style="stop-color:#69F7DC"/>
	</linearGradient>
<radialGradient id="SVGID_2_" cx="756.7774" cy="1034.3301" r="204.4527" gradientUnits="userSpaceOnUse">
		<stop offset="0" style="stop-color:#003496"/>
		<stop offset="0.9911" style="stop-color:#000A65"/>
	</radialGradient><path class="st1" d="M988.17,981.87h-1.19c-5.2-29.81-27.58-58.83-67.13-81.66c-90.66-52.34-237.15-52.35-327.22-0.01&#10;&#9;&#9;c-39.29,22.83-61.34,51.86-66.2,81.67h-1.04v91.82h0c0.19,34.3,22.98,68.6,68.31,94.77c90.66,52.34,237.17,52.34,327.24,0&#10;&#9;&#9;c45.04-26.17,67.43-60.47,67.23-94.77h0V981.87z" style="fill: url('#SVGID_2_');" transform="matrix(1, 0, 0, 1, 0, 0)"/><linearGradient id="SVGID_3_" gradientUnits="userSpaceOnUse" x1="374.9889" y1="994.9753" x2="1138.5658" y2="994.9753">
		<stop offset="0.0144" style="stop-color:#7FBBE8;stop-opacity:0.12"/>
		<stop offset="0.0839" style="stop-color:#8CC4EE;stop-opacity:0.1256"/>
		<stop offset="0.2124" style="stop-color:#9FD0F5;stop-opacity:0.1361"/>
		<stop offset="0.3658" style="stop-color:#ABD9FB;stop-opacity:0.1485"/>
		<stop offset="0.5672" style="stop-color:#B3DEFE;stop-opacity:0.1649"/>
		<stop offset="1" style="stop-color:#B5DFFF;stop-opacity:0.2"/>
	</linearGradient><path class="st2" d="M1025.84,838.61c149.59,86.36,150.41,226.37,1.79,312.73c-148.61,86.36-390.36,86.37-539.94,0&#10;&#9;&#9;s-150.37-226.39-1.76-312.75C634.55,752.23,876.26,752.25,1025.84,838.61z" style="opacity: 0.5; fill: url('#SVGID_3_');" transform="matrix(1, 0, 0, 1, 0, 0)"/><path class="st4" d="M1287.28,995.86c0.87-0.18,1.8-0.27,2.76-0.33c-0.11-43.18-15.35-84.99-44.21-123.43&#10;&#9;&#9;&#9;c-0.76,0.51-1.57,0.96-2.45,1.34c28.71,38.12,43.84,79.56,43.9,122.33C1287.29,995.8,1287.28,995.83,1287.28,995.86z" style="fill: rgb(85, 207, 255); opacity: 0.5;" transform="matrix(1, 0, 0, 1, 0, 0)"/><path class="st4" d="M1142.1,1206.47c0.46,0.8,0.86,1.64,1.2,2.51c20.91-12.72,39.71-26.31,56.35-40.62&#10;&#9;&#9;&#9;c-0.53-0.78-0.99-1.6-1.4-2.45C1181.68,1180.19,1162.95,1193.77,1142.1,1206.47z" style="fill: rgb(85, 207, 255); opacity: 0.5;" transform="matrix(1, 0, 0, 1, 0, 0)"/><path class="st4" d="M853.19,1296.77c0.11,0.92,0.17,1.84,0.16,2.76c25.49-2.65,50.52-6.3,74.87-11.03&#10;&#9;&#9;&#9;c-0.24-0.89-0.41-1.8-0.53-2.71C903.47,1290.49,878.56,1294.13,853.19,1296.77z" style="fill: rgb(85, 207, 255); opacity: 0.5;" transform="matrix(1, 0, 0, 1, 0, 0)"/><path class="st4" d="M687.28,1301.7c18.32,1.41,36.85,2.3,55.55,2.61c0.02-0.93,0.1-1.85,0.24-2.76&#10;&#9;&#9;&#9;c-18.74-0.31-37.3-1.2-55.65-2.61C687.43,1299.86,687.38,1300.78,687.28,1301.7z" style="fill: rgb(85, 207, 255); opacity: 0.5;" transform="matrix(1, 0, 0, 1, 0, 0)"/><path class="st4" d="M293.84,1144.08c-0.72,0.58-1.49,1.11-2.33,1.57c23.99,24.77,54.02,47.77,89.7,68.37&#10;&#9;&#9;&#9;c33.58,19.39,70.88,35.8,110.85,49.17c0.39-0.83,0.84-1.63,1.35-2.39c-39.99-13.34-77.25-29.79-110.82-49.17&#10;&#9;&#9;&#9;C347.31,1191.26,317.59,1168.53,293.84,1144.08z" style="fill: rgb(85, 207, 255); opacity: 0.5;" transform="matrix(1, 0, 0, 1, 0, 0)"/><path class="st4" d="M330.07,808.42c-61.2,47.04-97.54,102.97-105.08,162.28c0.94-0.2,1.89-0.33,2.85-0.4&#10;&#9;&#9;&#9;c7.62-57.97,43.2-112.7,102.93-158.92C330.46,810.41,330.22,809.42,330.07,808.42z" style="fill: rgb(85, 207, 255); opacity: 0.5;" transform="matrix(1, 0, 0, 1, 0, 0)"/><path class="st4" d="M1132.32,775.94c-20.08-11.6-41.5-22.13-64-31.61c-0.25,0.89-0.55,1.77-0.92,2.61&#10;&#9;&#9;&#9;c22.34,9.41,43.59,19.88,63.53,31.39c35.91,20.73,66.03,43.9,89.99,68.83c0.46-0.82,1-1.6,1.59-2.34&#10;&#9;&#9;&#9;C1198.45,819.87,1168.25,796.68,1132.32,775.94z" style="fill: rgb(85, 207, 255); opacity: 0.5;" transform="matrix(1, 0, 0, 1, 0, 0)"/><path class="st4" d="M1172.82,904.11c-0.67,0.65-1.39,1.24-2.13,1.8c18.38,28.33,28.03,58.6,28.08,89.72&#10;&#9;&#9;&#9;c0.04,25.43-6.34,50.29-18.68,73.98c0.79,0.5,1.56,1.03,2.26,1.63c12.66-24.18,19.21-49.6,19.18-75.61&#10;&#9;&#9;&#9;C1201.48,963.85,1191.62,932.97,1172.82,904.11z" style="fill: rgb(85, 207, 255); opacity: 0.5;" transform="matrix(1, 0, 0, 1, 0, 0)"/><path class="st4" d="M993.79,779.79c26.7,9.9,51.76,21.53,74.76,34.8c4.53,2.62,8.93,5.29,13.24,8c0.45-0.79,0.95-1.57,1.52-2.31&#10;&#9;&#9;&#9;c-4.36-2.74-8.8-5.44-13.38-8.08c-23.15-13.36-48.38-25.07-75.25-35.03C994.45,778.06,994.15,778.94,993.79,779.79z" style="fill: rgb(85, 207, 255); opacity: 0.5;" transform="matrix(1, 0, 0, 1, 0, 0)"/><path class="st4" d="M709.41,738.14c-45.12,2.67-88.74,9.28-129.69,19.51c0.65,0.75,1.22,1.55,1.73,2.4&#10;&#9;&#9;&#9;c40.13-9.95,82.83-16.4,126.98-19.08C708.69,740,709.02,739.05,709.41,738.14z" style="fill: rgb(85, 207, 255); opacity: 0.5;" transform="matrix(1, 0, 0, 1, 0, 0)"/><path class="st4" d="M341.85,905.93c21.6-33.9,55.74-65,101.1-91.36c1.09-0.63,2.22-1.23,3.32-1.86c-0.57-0.73-1.09-1.49-1.56-2.3&#10;&#9;&#9;&#9;c-1.04,0.59-2.11,1.16-3.15,1.76c-46.14,26.81-80.8,58.53-102.61,93.14C339.97,905.45,340.93,905.66,341.85,905.93z" style="fill: rgb(85, 207, 255); opacity: 0.5;" transform="matrix(1, 0, 0, 1, 0, 0)"/><path class="st4" d="M372.09,1120.15c-34.63-35.27-54.27-74.9-56.95-116.24c-0.93-0.05-1.86-0.17-2.8-0.38&#10;&#9;&#9;&#9;c2.59,42.41,22.69,83.03,58.27,119.06C371.04,1121.74,371.53,1120.92,372.09,1120.15z" style="fill: rgb(85, 207, 255); opacity: 0.5;" transform="matrix(1, 0, 0, 1, 0, 0)"/><path class="st4" d="M697.4,1247.97c-71.16-5.63-138.32-21.07-196.62-45.24c-0.45,0.82-0.96,1.61-1.52,2.36&#10;&#9;&#9;&#9;c58.6,24.36,126.1,39.92,197.62,45.62C696.99,1249.78,697.16,1248.87,697.4,1247.97z" style="fill: rgb(85, 207, 255); opacity: 0.5;" transform="matrix(1, 0, 0, 1, 0, 0)"/><path class="st4" d="M1090.29,1163.17c-6.31,4.17-12.84,8.25-19.66,12.21c-52.98,30.79-117.18,52.76-187.32,64.68&#10;&#9;&#9;&#9;c0.74,0.76,1.41,1.59,1.99,2.47c69.87-12.04,133.84-34.03,186.72-64.76c7.22-4.2,14.15-8.52,20.8-12.95&#10;&#9;&#9;&#9;C1091.94,1164.32,1091.09,1163.77,1090.29,1163.17z" style="fill: rgb(85, 207, 255); opacity: 0.5;" transform="matrix(1, 0, 0, 1, 0, 0)"/><path class="st4" d="M515.62,847.66c33.93-18.55,73.17-32.75,115.76-42.09c-0.31-0.87-0.55-1.76-0.75-2.66&#10;&#9;&#9;&#9;c-42.85,9.41-82.34,23.71-116.48,42.4C514.7,846.06,515.19,846.84,515.62,847.66z" style="fill: rgb(85, 207, 255); opacity: 0.5;" transform="matrix(1, 0, 0, 1, 0, 0)"/><path class="st4" d="M404.45,1008.37c0.9,0,1.75,0.07,2.57,0.17c-0.56-4.66-0.86-9.36-0.87-14.08&#10;&#9;&#9;&#9;c-0.04-27.62,9.48-54.4,27.63-79.08c-0.67-0.7-1.26-1.45-1.79-2.24c-18.79,25.32-28.65,52.87-28.61,81.32&#10;&#9;&#9;&#9;c0.01,4.66,0.3,9.3,0.83,13.91C404.3,1008.38,404.37,1008.37,404.45,1008.37z" style="fill: rgb(85, 207, 255); opacity: 0.5;" transform="matrix(1, 0, 0, 1, 0, 0)"/><path class="st4" d="M646.19,1186.97c-50.93-9.85-97.66-26.42-136.81-49.02c-12.21-7.05-23.39-14.54-33.55-22.38&#10;&#9;&#9;&#9;c-0.8,0.56-1.65,1.07-2.53,1.52c10.48,8.16,22.03,15.94,34.69,23.25c39.37,22.73,86.33,39.39,137.49,49.31&#10;&#9;&#9;&#9;C645.67,1188.74,645.89,1187.84,646.19,1186.97z" style="fill: rgb(85, 207, 255); opacity: 0.5;" transform="matrix(1, 0, 0, 1, 0, 0)"/><path class="st4" d="M1057.11,887.2c-14.45-13.49-31.68-26.1-51.57-37.58c-24.17-13.96-51.23-25.61-80.33-34.85&#10;&#9;&#9;&#9;c0.07,0.97,0.07,1.94,0,2.91c28.59,9.14,55.18,20.61,78.94,34.33c19.85,11.46,37.02,24.05,51.37,37.5&#10;&#9;&#9;&#9;C1056,888.69,1056.53,887.93,1057.11,887.2z" style="fill: rgb(85, 207, 255); opacity: 0.5;" transform="matrix(1, 0, 0, 1, 0, 0)"/><path class="st4" d="M1102.11,960.36c3.48,11.49,5.27,23.24,5.28,35.14c0.03,20.34-5.13,40.23-15.1,59.16&#10;&#9;&#9;&#9;c0.96,0.13,1.9,0.33,2.82,0.6c9.94-19.12,15.07-39.2,15.04-59.76c-0.02-12.23-1.86-24.29-5.45-36.09&#10;&#9;&#9;&#9;C1103.86,959.78,1102.99,960.1,1102.11,960.36z" style="fill: rgb(85, 207, 255); opacity: 0.5;" transform="matrix(1, 0, 0, 1, 0, 0)"/><path class="st4" d="M1008.05,1136.62c-0.75,0.44-1.48,0.89-2.24,1.33c-50.22,29.19-113.16,48.37-181.65,55.91&#10;&#9;&#9;&#9;c0.36,0.87,0.67,1.77,0.91,2.69c68.64-7.63,131.73-26.91,182.13-56.2c0.52-0.3,1.03-0.62,1.55-0.92&#10;&#9;&#9;&#9;C1008.43,1138.5,1008.19,1137.56,1008.05,1136.62z" style="fill: rgb(85, 207, 255); opacity: 0.5;" transform="matrix(1, 0, 0, 1, 0, 0)"/><linearGradient id="SVGID_4_" gradientUnits="userSpaceOnUse" x1="469.5018" y1="994.9753" x2="1044.053" y2="994.9753">
		<stop offset="0.0144" style="stop-color:#7FBBE8;stop-opacity:0.12"/>
		<stop offset="0.0839" style="stop-color:#8CC4EE;stop-opacity:0.1256"/>
		<stop offset="0.2124" style="stop-color:#9FD0F5;stop-opacity:0.1361"/>
		<stop offset="0.3658" style="stop-color:#ABD9FB;stop-opacity:0.1485"/>
		<stop offset="0.5672" style="stop-color:#B3DEFE;stop-opacity:0.1649"/>
		<stop offset="1" style="stop-color:#B5DFFF;stop-opacity:0.2"/>
	</linearGradient><path class="st5" d="M959.23,877.32c112.55,64.98,113.17,170.33,1.35,235.32c-111.82,64.98-293.72,64.99-406.28,0&#10;&#9;&#9;s-113.15-170.35-1.32-235.33C664.81,812.32,846.68,812.34,959.23,877.32z" style="opacity: 0.5; fill: url('#SVGID_4_');" transform="matrix(1, 0, 0, 1, 0, 0)"/><path class="st6" d="M919.85,900.21c90.66,52.34,91.16,137.19,1.09,189.54c-90.07,52.34-236.58,52.34-327.24,0&#10;&#9;&#9;s-91.14-137.21-1.07-189.55C682.7,847.86,829.19,847.87,919.85,900.21z" style="fill: rgb(0, 183, 255);" transform="matrix(1, 0, 0, 1, 0, 0)"/><path class="st4" d="M906.92,905.74c83.47,48.19,83.93,126.32,1,174.51c-82.93,48.19-217.82,48.19-301.29,0&#10;&#9;&#9;c-83.47-48.19-83.91-126.33-0.98-174.52C688.57,857.54,823.45,857.55,906.92,905.74z" style="fill: rgb(85, 207, 255);" transform="matrix(1, 0, 0, 1, 0, 0)"/><path class="st7" d="M893.99,911.27c76.28,44.04,76.7,115.44,0.92,159.48c-75.79,44.04-199.06,44.04-275.35,0&#10;&#9;&#9;c-76.28-44.04-76.68-115.45-0.9-159.49S817.71,867.23,893.99,911.27z" style="fill: rgb(170, 231, 255);" transform="matrix(1, 0, 0, 1, 0, 0)"/><linearGradient id="SVGID_5_" gradientUnits="userSpaceOnUse" x1="756.7774" y1="993.812" x2="756.7774" y2="362.3374">
		<stop offset="0" style="stop-color:#B5DFFF;stop-opacity:0.2"/>
		<stop offset="0.4328" style="stop-color:#B3DEFE;stop-opacity:0.1122"/>
		<stop offset="0.6342" style="stop-color:#ABD9FB;stop-opacity:0.0713"/>
		<stop offset="0.7876" style="stop-color:#9FD0F5;stop-opacity:0.0402"/>
		<stop offset="0.9161" style="stop-color:#8CC4EE;stop-opacity:0.0141"/>
		<stop offset="0.9856" style="stop-color:#7FBBE8;stop-opacity:0"/>
	</linearGradient><path d="M 1106.800048828125 362.3399963378906 L 406.760009765625 362.3399963378906 L 564.219970703125 993.8099975585938 L 949.3400268554688 993.8099975585938 Z" class="st8" style="opacity: 0.71; fill: url('#SVGID_5_');" transform="matrix(1, 0, 0, 1, 0, 0)"/><linearGradient id="SVGID_6_" gradientUnits="userSpaceOnUse" x1="756.7774" y1="993.812" x2="756.7774" y2="401.7362">
		<stop offset="0" style="stop-color:#B5DFFF;stop-opacity:0.2"/>
		<stop offset="0.4328" style="stop-color:#B3DEFE;stop-opacity:0.1122"/>
		<stop offset="0.6342" style="stop-color:#ABD9FB;stop-opacity:0.0713"/>
		<stop offset="0.7876" style="stop-color:#9FD0F5;stop-opacity:0.0402"/>
		<stop offset="0.9161" style="stop-color:#8CC4EE;stop-opacity:0.0141"/>
		<stop offset="0.9856" style="stop-color:#7FBBE8;stop-opacity:0"/>
	</linearGradient><path d="M 1059.219970703125 401.739990234375 L 454.3299865722656 401.739990234375 L 590.3900146484375 993.8099975585938 L 923.1599731445312 993.8099975585938 Z" class="st9" style="opacity: 0.17; fill: url('#SVGID_6_');" transform="matrix(1, 0, 0, 1, 0, 0)"/><path class="st10" d="M978.49,563.6c23.93,28.86,32.39,60.88,25.46,91.92l-20.17,69.87c6.43-28.82-1.42-58.56-23.65-85.36&#10;&#9;&#9;L978.49,563.6" style="opacity: 0.27; fill: rgb(85, 207, 255);" transform="matrix(1, 0, 0, 1, 0, 0)"/><path class="st10" d="M820.03,569.07c33.29,7.69,64.4,19.49,90.97,35.37c10.97,6.56,20.71,13.54,29.22,20.85l-16.9,77.92&#10;&#9;&#9;c-7.86-6.75-16.85-13.19-26.97-19.24c-24.52-14.66-53.23-25.55-83.95-32.64L820.03,569.07" style="opacity: 0.27; fill: rgb(85, 207, 255);" transform="matrix(1, 0, 0, 1, 0, 0)"/><path class="st10" d="M629.54,437.94c53.52-10.5,111.24-11.72,165.76-3.74l-5.1,82.71c-50.76-7.43-104.51-6.3-154.34,3.48&#10;&#9;&#9;L629.54,437.94" style="opacity: 0.27; fill: rgb(85, 207, 255);" transform="matrix(1, 0, 0, 1, 0, 0)"/><path class="st10" d="M516.73,629.85c8.99-9.87,20.78-19.09,35.37-27.28c13.26-7.44,27.93-13.52,43.51-18.24l7.11,63.36&#10;&#9;&#9;c-14.28,4.33-27.74,9.9-39.9,16.73c-13.37,7.5-24.19,15.96-32.43,25.01L516.73,629.85" style="opacity: 0.27; fill: rgb(85, 207, 255);" transform="matrix(1, 0, 0, 1, 0, 0)"/><path class="st11" d="M881.06,916.8c69.09,39.89,69.47,104.56,0.83,144.45c-68.64,39.89-180.31,39.89-249.4,0&#10;&#9;&#9;c-69.09-39.89-69.46-104.57-0.81-144.46C700.32,876.9,811.96,876.91,881.06,916.8z" style="fill: rgb(255, 255, 255);" transform="matrix(1, 0, 0, 1, 0, 0)"/><radialGradient id="SVGID_7_" cx="812.4136" cy="510.8181" r="97.4587" gradientUnits="userSpaceOnUse">
		<stop offset="0" style="stop-color:#FFFFFF"/>
		<stop offset="1" style="stop-color:#FFFFFF;stop-opacity:0"/>
	</radialGradient><path d="M 909.869972 510.820007 A 97.459999 97.459999 0 0 1 812.409973 608.280006 A 97.459999 97.459999 0 0 1 714.949974 510.820007 A 97.459999 97.459999 0 0 1 812.409973 413.360008 A 97.459999 97.459999 0 0 1 909.869972 510.820007 Z" class="st12" style="fill: url('#SVGID_7_');" transform="matrix(1, 0, 0, 1, 0, 0)"/><linearGradient id="SVGID_8_" gradientUnits="userSpaceOnUse" x1="745.6183" y1="935.6772" x2="508.8756" y2="639.2899">
			<stop offset="0" style="stop-color:#A5DADB"/>
			<stop offset="1" style="stop-color:#FFFFFF"/>
		</linearGradient><path class="st13" d="M820.09,983.4c-3.49-2.04-7.84-1.61-11.85-1.12c-3.16,0.39-6.44,0.81-9.15,2.49&#10;&#9;&#9;&#9;c-2.82,1.74-4.7,4.62-6.76,7.22c-4.24,5.35-9.58,9.83-15.59,13.07c-2.73,1.47-6.01,3.28-6.16,6.37c-0.12,2.54,2.02,4.56,3.97,6.19&#10;&#9;&#9;&#9;c2.82,2.36,6.18,4.87,9.8,4.22c1.59-0.28,2.99-1.16,4.36-2.01c8.99-5.63,17.99-11.26,26.98-16.89c3.35-2.1,6.9-4.43,8.35-8.11&#10;&#9;&#9;&#9;C825.66,990.75,823.88,985.62,820.09,983.4z" style="fill: url('#SVGID_8_');" transform="matrix(1, 0, 0, 1, 0, 0)"/><linearGradient id="SVGID_9_" gradientUnits="userSpaceOnUse" x1="801.8801" y1="981.8676" x2="816.1902" y2="981.8676">
			<stop offset="0" style="stop-color:#485865"/>
			<stop offset="0.9856" style="stop-color:#2B3F4E"/>
		</linearGradient><path d="M 816.199978 981.869995 A 7.16 7.16 0 0 1 809.039978 989.029995 A 7.16 7.16 0 0 1 801.879978 981.869995 A 7.16 7.16 0 0 1 809.039978 974.709995 A 7.16 7.16 0 0 1 816.199978 981.869995 Z" class="st14" style="fill: url('#SVGID_9_');" transform="matrix(1, 0, 0, 1, 0, 0)"/><linearGradient id="SVGID_10_" gradientUnits="userSpaceOnUse" x1="723.9291" y1="953.0017" x2="487.1864" y2="656.6144">
			<stop offset="0" style="stop-color:#A5DADB"/>
			<stop offset="1" style="stop-color:#FFFFFF"/>
		</linearGradient><path class="st15" d="M754.64,947.96c-3.33-1.95-7.49-1.54-11.32-1.07c-3.02,0.37-6.15,0.78-8.74,2.37&#10;&#9;&#9;&#9;c-2.7,1.66-4.49,4.42-6.46,6.9c-4.05,5.12-9.15,9.39-14.89,12.49c-2.61,1.41-5.74,3.13-5.88,6.09c-0.11,2.43,1.93,4.36,3.79,5.92&#10;&#9;&#9;&#9;c2.7,2.25,5.9,4.65,9.36,4.03c1.51-0.27,2.86-1.1,4.17-1.92c8.59-5.38,17.19-10.76,25.78-16.14c3.2-2,6.6-4.24,7.98-7.75&#10;&#9;&#9;&#9;C759.95,954.98,758.26,950.08,754.64,947.96z" style="fill: url('#SVGID_10_');" transform="matrix(1, 0, 0, 1, 0, 0)"/><linearGradient id="SVGID_11_" gradientUnits="userSpaceOnUse" x1="737.2341" y1="946.4934" x2="750.9063" y2="946.4934">
			<stop offset="0" style="stop-color:#485865"/>
			<stop offset="0.9856" style="stop-color:#2B3F4E"/>
		</linearGradient><path d="M 750.910007 946.48999 A 6.84 6.84 0 0 1 744.070007 953.32999 A 6.84 6.84 0 0 1 737.230007 946.48999 A 6.84 6.84 0 0 1 744.070007 939.64999 A 6.84 6.84 0 0 1 750.910007 946.48999 Z" class="st16" style="fill: url('#SVGID_11_');" transform="matrix(1, 0, 0, 1, 0, 0)"/><linearGradient id="SVGID_12_" gradientUnits="userSpaceOnUse" x1="822.5242" y1="874.2477" x2="585.7815" y2="577.8605">
			<stop offset="0" style="stop-color:#A5DADB"/>
			<stop offset="1" style="stop-color:#FFFFFF"/>
		</linearGradient><path class="st17" d="M774.79,765.85c-3.03,22.29-8.57,44.23-16.5,65.29c-1.36,3.61-2.85,7.29-5.49,10.09s-6.73,4.58-10.42,3.46&#10;&#9;&#9;&#9;c-5.26-1.6-7.29-7.86-8.35-13.26c-4.11-20.85-5.54-42.23-4.25-63.45c0.6-9.93,1.96-20.28,7.6-28.49&#10;&#9;&#9;&#9;c5.63-8.21,16.74-13.45,25.85-9.44c6.18,2.72,10.18,9.07,11.66,15.66C776.38,752.29,775.7,759.15,774.79,765.85z" style="fill: url('#SVGID_12_');" transform="matrix(1, 0, 0, 1, 0, 0)"/><linearGradient id="SVGID_13_" gradientUnits="userSpaceOnUse" x1="715.7737" y1="672.5858" x2="405.1636" y2="541.3679">
			<stop offset="0" style="stop-color:#A5DADB"/>
			<stop offset="1" style="stop-color:#FFFFFF"/>
		</linearGradient><path class="st18" d="M586.8,616.84c0.6-2.6,1.39-5.47,3.68-6.84c2.68-1.6,6.08-0.39,8.94,0.84c1.69,0.72,3.53,1.6,4.23,3.31&#10;&#9;&#9;&#9;c0.57,1.4,0.2,2.99-0.19,4.45c-0.97,3.71-1.93,7.43-2.9,11.14c-0.28,1.09-0.61,2.26-1.49,2.97c-0.98,0.8-2.37,0.81-3.63,0.71&#10;&#9;&#9;&#9;c-2.45-0.21-5-0.77-6.84-2.4c-1.87-1.67-2.73-4.24-2.83-6.75S586.24,619.28,586.8,616.84z" style="fill: url('#SVGID_13_');" transform="matrix(1, 0, 0, 1, 0, 0)"/><linearGradient id="SVGID_14_" gradientUnits="userSpaceOnUse" x1="757.66" y1="636.8805" x2="847.7806" y2="636.8805">
			<stop offset="0" style="stop-color:#485865"/>
			<stop offset="0.9856" style="stop-color:#2B3F4E"/>
		</linearGradient><path class="st19" d="M846.65,628.84c2.93,8.66-0.38,18.06-3.65,26.6c-3.4,8.89-6.81,17.77-10.21,26.66&#10;&#9;&#9;&#9;c-1.26,3.29-3.06,7.06-6.53,7.7c-2.34,0.43-4.65-0.77-6.73-1.93c-11.82-6.6-23.63-13.19-35.45-19.79&#10;&#9;&#9;&#9;c-7.67-4.28-15.65-8.85-20.39-16.23c-5.29-8.24-5.69-18.59-5.92-28.38c-0.2-8.42-0.39-16.95,1.63-25.12&#10;&#9;&#9;&#9;c1.36-5.53,4.19-11.29,9.44-13.49c4.7-1.97,10.09-0.6,14.9,1.11c16.29,5.79,31.08,15.09,45.49,24.64&#10;&#9;&#9;&#9;C836.38,615.34,843.91,620.72,846.65,628.84z" style="fill: url('#SVGID_14_');" transform="matrix(1, 0, 0, 1, 0, 0)"/><linearGradient id="SVGID_15_" gradientUnits="userSpaceOnUse" x1="796.8326" y1="581.9863" x2="835.7397" y2="581.9863">
				<stop offset="0" style="stop-color:#485865"/>
				<stop offset="0.9856" style="stop-color:#2B3F4E"/>
			</linearGradient><path class="st20" d="M799.65,624.21l-2.82-3.84c6.47-4.74,12.23-11.55,17.14-20.23c4.41-7.81,7.72-16.29,11-25.01&#10;&#9;&#9;&#9;&#9;c2.26-6.01,4.21-11.43,5.25-17.02c1.18-6.33,0.97-12.01-0.61-16.88l4.53-1.47c1.83,5.64,2.08,12.1,0.76,19.22&#10;&#9;&#9;&#9;&#9;c-1.11,5.97-3.14,11.6-5.47,17.82c-3.35,8.91-6.73,17.58-11.31,25.68C812.88,611.76,806.67,619.07,799.65,624.21z" style="fill: url('#SVGID_15_');" transform="matrix(1, 0, 0, 1, 0, 0)"/><linearGradient id="SVGID_16_" gradientUnits="userSpaceOnUse" x1="785.3481" y1="593.6146" x2="793.8212" y2="593.6146">
				<stop offset="0" style="stop-color:#485865"/>
				<stop offset="0.9856" style="stop-color:#2B3F4E"/>
			</linearGradient><path class="st21" d="M789.42,614.99c-1.73-4.12-2.92-8.46-3.53-12.89c-1.41-10.11,0.18-20.15,1.72-29.86l4.71,0.75&#10;&#9;&#9;&#9;&#9;c-1.48,9.36-3.02,19.04-1.71,28.45c0.56,4.02,1.64,7.96,3.21,11.7L789.42,614.99z" style="fill: url('#SVGID_16_');" transform="matrix(1, 0, 0, 1, 0, 0)"/><g transform="matrix(1, 0, 0, 1, 0, 0)">
				<linearGradient id="SVGID_17_" gradientUnits="userSpaceOnUse" x1="826.3187" y1="540.8749" x2="837.6766" y2="540.8749">
					<stop offset="0" style="stop-color:#485865"/>
					<stop offset="0.9856" style="stop-color:#2B3F4E"/>
				</linearGradient>
				<path class="st22" d="M832.11,546.82c-2.4,0-4.62-1.57-5.33-4c-0.06-0.21-0.13-0.42-0.19-0.63c-0.94-2.93,0.67-6.05,3.6-6.99&#10;&#9;&#9;&#9;&#9;&#9;c2.93-0.93,6.05,0.68,6.99,3.6c0.09,0.29,0.19,0.59,0.27,0.89c0.86,2.95-0.82,6.04-3.77,6.9&#10;&#9;&#9;&#9;&#9;&#9;C833.16,546.74,832.63,546.82,832.11,546.82z" style="fill: url('#SVGID_17_');"/>
			</g><linearGradient id="SVGID_18_" gradientUnits="userSpaceOnUse" x1="801.6825" y1="583.2897" x2="838.8512" y2="583.2897">
					<stop offset="0" style="stop-color:#485865"/>
					<stop offset="0.9856" style="stop-color:#2B3F4E"/>
				</linearGradient><path class="st23" d="M807.24,619.5c-1.29,0-2.59-0.45-3.65-1.37c-2.32-2.02-2.56-5.53-0.54-7.85c0.33-0.38,0.65-0.76,0.97-1.15&#10;&#9;&#9;&#9;&#9;&#9;c1.96-2.37,5.46-2.7,7.83-0.74c2.37,1.96,2.7,5.46,0.74,7.83c-0.38,0.46-0.76,0.91-1.15,1.36&#10;&#9;&#9;&#9;&#9;&#9;C810.34,618.85,808.79,619.5,807.24,619.5z M814.9,608.84c-0.97,0-1.95-0.25-2.85-0.79c-2.64-1.58-3.5-4.99-1.92-7.63&#10;&#9;&#9;&#9;&#9;&#9;c0.27-0.44,0.53-0.89,0.79-1.34c1.53-2.66,4.94-3.57,7.59-2.05c2.66,1.53,3.58,4.93,2.05,7.59c-0.29,0.5-0.58,1-0.88,1.5&#10;&#9;&#9;&#9;&#9;&#9;C818.64,607.88,816.79,608.84,814.9,608.84z M820.91,597.17c-0.76,0-1.53-0.16-2.27-0.49c-2.8-1.26-4.06-4.55-2.8-7.35&#10;&#9;&#9;&#9;&#9;&#9;c0.22-0.48,0.43-0.97,0.64-1.45c1.23-2.81,4.51-4.1,7.32-2.88c2.82,1.23,4.1,4.5,2.87,7.32c-0.22,0.52-0.45,1.04-0.69,1.55&#10;&#9;&#9;&#9;&#9;&#9;C825.07,595.94,823.04,597.17,820.91,597.17z M825.89,585.01c-0.65,0-1.32-0.12-1.97-0.36c-2.87-1.09-4.32-4.3-3.23-7.17&#10;&#9;&#9;&#9;&#9;&#9;l0.58-1.53c1.09-2.87,4.3-4.32,7.17-3.23c2.87,1.09,4.32,4.3,3.23,7.17l-0.58,1.54C830.25,583.64,828.13,585.01,825.89,585.01z&#10;&#9;&#9;&#9;&#9;&#9; M830.36,572.65c-0.56,0-1.14-0.09-1.7-0.27c-2.92-0.94-4.53-4.07-3.59-6.99c0.16-0.49,0.31-0.97,0.45-1.46&#10;&#9;&#9;&#9;&#9;&#9;c0.88-2.94,3.97-4.61,6.92-3.74c2.94,0.88,4.62,3.98,3.74,6.92c-0.17,0.56-0.34,1.12-0.52,1.68&#10;&#9;&#9;&#9;&#9;&#9;C834.89,571.15,832.71,572.65,830.36,572.65z M833.17,559.84c-0.18,0-0.36-0.01-0.54-0.03c-3.06-0.3-5.29-3.01-5-6.07&#10;&#9;&#9;&#9;&#9;&#9;c0.04-0.47,0.08-0.94,0.11-1.42c0.17-3.07,2.78-5.43,5.87-5.24c3.07,0.17,5.41,2.8,5.24,5.87c-0.03,0.62-0.08,1.24-0.14,1.86&#10;&#9;&#9;&#9;&#9;&#9;C838.42,557.69,836,559.84,833.17,559.84z" style="fill: url('#SVGID_18_');" transform="matrix(1, 0, 0, 1, 0, 0)"/><linearGradient id="SVGID_19_" gradientUnits="userSpaceOnUse" x1="792.6806" y1="622.0538" x2="804.4383" y2="622.0538">
					<stop offset="0" style="stop-color:#485865"/>
					<stop offset="0.9856" style="stop-color:#2B3F4E"/>
				</linearGradient><path class="st24" d="M798.25,627.85c-1.71,0-3.39-0.78-4.48-2.26c-1.82-2.47-1.3-5.95,1.18-7.78l0.58-0.43&#10;&#9;&#9;&#9;&#9;&#9;c2.45-1.86,5.94-1.37,7.79,1.08c1.85,2.45,1.37,5.94-1.08,7.79l-0.69,0.52C800.55,627.5,799.39,627.85,798.25,627.85z" style="fill: url('#SVGID_19_');" transform="matrix(1, 0, 0, 1, 0, 0)"/><g transform="matrix(1, 0, 0, 1, 0, 0)">
				<linearGradient id="SVGID_20_" gradientUnits="userSpaceOnUse" x1="784.2848" y1="573.0092" x2="795.5316" y2="573.0092">
					<stop offset="0" style="stop-color:#485865"/>
					<stop offset="0.9856" style="stop-color:#2B3F4E"/>
				</linearGradient>
				<path class="st25" d="M789.85,578.96c-0.29,0-0.59-0.02-0.89-0.07c-3.03-0.49-5.1-3.34-4.61-6.37l0.12-0.75&#10;&#9;&#9;&#9;&#9;&#9;c0.47-3.03,3.28-5.12,6.34-4.65c3.03,0.47,5.12,3.31,4.65,6.34l-0.13,0.82C794.9,577.02,792.54,578.96,789.85,578.96z" style="fill: url('#SVGID_20_');"/>
			</g><linearGradient id="SVGID_21_" gradientUnits="userSpaceOnUse" x1="782.4449" y1="593.5236" x2="793.7676" y2="593.5236">
					<stop offset="0" style="stop-color:#485865"/>
					<stop offset="0.9856" style="stop-color:#2B3F4E"/>
				</linearGradient><path class="st26" d="M788.2,606.99c-2.75,0-5.14-2.04-5.51-4.84c-0.08-0.64-0.16-1.28-0.22-1.92c-0.3-3.06,1.93-5.78,4.99-6.08&#10;&#9;&#9;&#9;&#9;&#9;c3.07-0.29,5.78,1.93,6.08,4.99c0.05,0.53,0.11,1.05,0.18,1.57c0.4,3.05-1.75,5.84-4.79,6.23&#10;&#9;&#9;&#9;&#9;&#9;C788.68,606.98,788.44,606.99,788.2,606.99z M788.02,592.93c-0.15,0-0.31-0.01-0.46-0.02c-3.06-0.25-5.34-2.94-5.09-6&#10;&#9;&#9;&#9;&#9;&#9;c0.05-0.61,0.11-1.23,0.17-1.84c0.3-3.06,3.02-5.28,6.08-4.99c3.06,0.3,5.29,3.02,4.99,6.08c-0.05,0.56-0.11,1.11-0.15,1.67&#10;&#9;&#9;&#9;&#9;&#9;C793.32,590.73,790.89,592.93,788.02,592.93z" style="fill: url('#SVGID_21_');" transform="matrix(1, 0, 0, 1, 0, 0)"/><linearGradient id="SVGID_22_" gradientUnits="userSpaceOnUse" x1="785.7603" y1="613.6971" x2="797.1854" y2="613.6971">
					<stop offset="0" style="stop-color:#485865"/>
					<stop offset="0.9856" style="stop-color:#2B3F4E"/>
				</linearGradient><path class="st27" d="M791.63,619.63c-2.18,0-4.24-1.28-5.13-3.41l-0.33-0.8c-1.15-2.85,0.23-6.09,3.07-7.24&#10;&#9;&#9;&#9;&#9;&#9;c2.85-1.15,6.09,0.23,7.24,3.07l0.27,0.67c1.19,2.83-0.15,6.09-2.98,7.28C793.07,619.49,792.34,619.63,791.63,619.63z" style="fill: url('#SVGID_22_');" transform="matrix(1, 0, 0, 1, 0, 0)"/><linearGradient id="SVGID_23_" gradientUnits="userSpaceOnUse" x1="793.4883" y1="589.6693" x2="816.9016" y2="589.6693">
			<stop offset="0" style="stop-color:#485865"/>
			<stop offset="0.9856" style="stop-color:#2B3F4E"/>
		</linearGradient><path class="st28" d="M798.98,573.61c-2.77,10.95-4.52,22.2-5.49,33.45c1.28,2.01,3.33,3.51,5.62,4.12s4.76,0.69,6.86-0.41&#10;&#9;&#9;&#9;c4.17-14.21,7.82-28.57,10.93-43.05C810.32,567.37,805.56,574.02,798.98,573.61z" style="fill: url('#SVGID_23_');" transform="matrix(1, 0, 0, 1, 0, 0)"/><linearGradient id="SVGID_24_" gradientUnits="userSpaceOnUse" x1="738.4437" y1="618.9229" x2="427.8336" y2="487.705">
			<stop offset="0" style="stop-color:#A5DADB"/>
			<stop offset="1" style="stop-color:#FFFFFF"/>
		</linearGradient><path class="st29" d="M727.05,662.42c1.32,0.87,3.02,0.95,4.58,0.66c5.75-1.07,9.61-6.38,12.64-11.38&#10;&#9;&#9;&#9;c8.77-14.44,15.82-29.92,20.97-46.01c1.15-3.59,2.21-7.26,2.43-11.03c0.21-3.77-0.49-7.69-2.61-10.81&#10;&#9;&#9;&#9;c-2.12-3.12-5.82-5.29-9.59-4.98c-3.56,0.29-6.6,2.65-9.07,5.22c-5.75,5.98-9.59,13.59-12.16,21.47&#10;&#9;&#9;&#9;c-2.57,7.89-3.94,16.11-5.3,24.29c-1.3,7.81-2.6,15.61-3.9,23.42c-0.27,1.63-0.54,3.29-0.34,4.94&#10;&#9;&#9;&#9;C724.91,659.85,725.67,661.5,727.05,662.42z" style="fill: url('#SVGID_24_');" transform="matrix(1, 0, 0, 1, 0, 0)"/><linearGradient id="SVGID_25_" gradientUnits="userSpaceOnUse" x1="751.9551" y1="717.5497" x2="824.2332" y2="717.5497">
			<stop offset="0" style="stop-color:#485865"/>
			<stop offset="0.9856" style="stop-color:#2B3F4E"/>
		</linearGradient><path class="st30" d="M751.96,693.88c3.73,8.28,5.4,17.47,4.81,26.53c-0.21,3.28-0.7,6.66,0.35,9.78&#10;&#9;&#9;&#9;c1.56,4.65,6.14,7.55,10.58,9.64c16.05,7.55,34.71,9.38,51.92,5.09c1.75-11.88,2.87-23.29,4.62-35.17&#10;&#9;&#9;&#9;c-10.83-4.95-21.28-10.65-32.11-15.59c-5.55-2.53-11.2-5.1-17.24-5.95C766.89,687.07,758.52,689.18,751.96,693.88z" style="fill: url('#SVGID_25_');" transform="matrix(1, 0, 0, 1, 0, 0)"/><linearGradient id="SVGID_26_" gradientUnits="userSpaceOnUse" x1="761.5814" y1="922.9265" x2="524.8386" y2="626.5392">
			<stop offset="0" style="stop-color:#A5DADB"/>
			<stop offset="1" style="stop-color:#FFFFFF"/>
		</linearGradient><path class="st31" d="M740.31,857.17c9.18,0.42,17.56,7.29,20.01,16.09c1.68,6.04,0.72,12.46-0.26,18.66&#10;&#9;&#9;&#9;c-2.33,14.86-4.67,29.71-7,44.57c-0.27,1.71-0.55,3.46-1.39,4.98c-0.84,1.51-2.37,2.77-4.1,2.79c-1.78,0.02-3.29-1.2-4.81-2.12&#10;&#9;&#9;&#9;c-0.78-0.47-2.22-0.2-3.64,0.32c-1.72,0.63-3.59-0.49-3.75-2.31c-2.03-23.14-2.47-48.27-4.7-71.16c-0.39-3.98-0.7-8.39,4.24-10.81&#10;&#9;&#9;&#9;C736.57,857.36,738.45,857.09,740.31,857.17z" style="fill: url('#SVGID_26_');" transform="matrix(1, 0, 0, 1, 0, 0)"/><linearGradient id="SVGID_27_" gradientUnits="userSpaceOnUse" x1="885.1246" y1="580.7697" x2="753.9068" y2="452.7635">
			<stop offset="0" style="stop-color:#A5DADB"/>
			<stop offset="1" style="stop-color:#FFFFFF"/>
		</linearGradient><path class="st32" d="M833.15,540.87c6.06-4.91,9.2-13.18,8.69-21.12c-0.5-7.94-4.41-15.45-10.05-20.87&#10;&#9;&#9;&#9;c-5.64-5.42-12.91-8.83-20.44-10.47c-4.22-0.91-8.58-1.3-12.85-0.64c-9.41,1.45-17.86,8.29-21.49,17.39&#10;&#9;&#9;&#9;c10.54,8.97,21.91,16.11,33.86,22.93C818.19,532.27,825.83,536.7,833.15,540.87z" style="fill: url('#SVGID_27_');" transform="matrix(1, 0, 0, 1, 0, 0)"/><linearGradient id="SVGID_28_" gradientUnits="userSpaceOnUse" x1="971.2177" y1="755.4771" x2="734.4749" y2="459.0898">
			<stop offset="0" style="stop-color:#A5DADB"/>
			<stop offset="1" style="stop-color:#FFFFFF"/>
		</linearGradient><path class="st33" d="M825.36,547.13c0,0,1,9.22-1.04,14.58c-2.65,6.95-14.43,12.58-14.43,12.58&#10;&#9;&#9;&#9;c-25.95,10.59-34.82-3.84-39.59-12.18c-4.77-8.34-1.59-15.89-1.19-18.14c0.4-2.25,2.38-9,3.44-13.5s-1.19-7.55-1.72-9.93&#10;&#9;&#9;&#9;c-0.53-2.38,0.26-15.62,3.57-19.46c3.31-3.84,12.84,4.1,12.84,4.1c6.51,3.48,18.03,6.84,25.4,7.14c3.01,0.12,6.06-0.02,9,0.65&#10;&#9;&#9;&#9;c2.94,0.68,5.84,2.35,7.08,5.1c1.18,2.62,0.66,5.66,0.11,8.48L825.36,547.13z" style="fill: url('#SVGID_28_');" transform="matrix(1, 0, 0, 1, 0, 0)"/><linearGradient id="SVGID_29_" gradientUnits="userSpaceOnUse" x1="767.7068" y1="546.6905" x2="783.3453" y2="546.6905">
				<stop offset="0" style="stop-color:#A1C7E3"/>
				<stop offset="0.9856" style="stop-color:#70A5CC"/>
			</linearGradient><path class="st34" d="M778.88,560.71c-0.71-0.45-1.2-1.23-1.31-2.06c-0.11-0.83,0.19-1.7,0.75-2.33c-0.7-0.77-0.56-2.15,0.16-2.9&#10;&#9;&#9;&#9;&#9;c0.79-0.07,1.22-1.07,0.99-1.83c-0.23-0.76-0.89-1.3-1.54-1.76s-1.35-0.9-1.75-1.58c-0.69-1.18-0.27-2.69,0.29-3.94&#10;&#9;&#9;&#9;&#9;c1.4-3.11,3.56-5.81,5.1-8.85c1.55-3.04,2.45-6.69,1.14-9.83c-1.09-2.62-3.58-4.47-6.25-5.44c-1.85-0.67-3.8-0.97-5.76-1.16&#10;&#9;&#9;&#9;&#9;c0.02,0.66,0.07,1.18,0.14,1.5c0.53,2.38,2.78,5.43,1.72,9.93c-1.06,4.5-3.04,11.25-3.44,13.5c-0.4,2.25-3.57,9.8,1.19,18.14&#10;&#9;&#9;&#9;&#9;c2.17,3.8,5.2,8.86,10.31,12.25c-0.26-0.47-0.51-0.95-0.71-1.46C778.4,569.11,778.44,564.77,778.88,560.71z" style="fill: url('#SVGID_29_');" transform="matrix(1, 0, 0, 1, 0, 0)"/><linearGradient id="SVGID_30_" gradientUnits="userSpaceOnUse" x1="909.2515" y1="804.9733" x2="672.5088" y2="508.586">
			<stop offset="0" style="stop-color:#A5DADB"/>
			<stop offset="1" style="stop-color:#FFFFFF"/>
		</linearGradient><path class="st35" d="M742.04,686.16c0.71,3.03,1.45,6.15,3.22,8.71c1.77,2.56,4.83,4.48,7.91,3.99c3.29-0.53,5.6-3.53,8.68-4.8&#10;&#9;&#9;&#9;c4.06-1.68,8.88-0.03,12.13,2.93c3.25,2.96,5.24,7.01,7.15,10.96c1.9,3.96,3.85,8.02,7.04,11.04c6.64,6.31,18.32,6.21,24.85-0.21&#10;&#9;&#9;&#9;c5.21-5.12,6.78-12.79,7.96-20c1.95-11.9,3.53-23.91,6.89-35.5c3.36-11.59,8.46-22.39,16.84-31.06c-2.73-6-6.05-11.88-10.93-16.3&#10;&#9;&#9;&#9;c-4.89-4.42-11.62-7.32-18.12-6.28c-2.65,3.18-5.34,6.4-8.68,8.86s-7.43,4.13-11.56,3.77c-5.51-0.47-10.46-4.87-11.58-10.29&#10;&#9;&#9;&#9;c-1.12-5.42,1.7-11.41,6.58-14.02c-3.34-4.84-7.25-9.27-12.18-12.48c-2.59-1.68-5.48-3.13-8.56-3.17&#10;&#9;&#9;&#9;c-4.27-0.05-8.1,2.59-11.13,5.6c-6.45,6.39-10.64,14.77-13.29,23.46c-2.65,8.68-3.85,17.73-5.04,26.73&#10;&#9;&#9;&#9;C738.08,654.19,738.36,670.37,742.04,686.16z" style="fill: url('#SVGID_30_');" transform="matrix(1, 0, 0, 1, 0, 0)"/><linearGradient id="SVGID_31_" gradientUnits="userSpaceOnUse" x1="544.7383" y1="764.0667" x2="903.9816" y2="655.3302">
			<stop offset="0" style="stop-color:#FFFFFF"/>
			<stop offset="1" style="stop-color:#A5DADB"/>
		</linearGradient><path class="st36" d="M815.85,718.53c1.32,0.87,3.02,0.95,4.58,0.66c5.75-1.07,9.61-6.38,12.64-11.38&#10;&#9;&#9;&#9;c8.77-14.44,15.82-29.92,20.97-46.01c1.15-3.59,2.21-7.26,2.43-11.03c0.21-3.77-0.49-7.69-2.61-10.81s-5.82-5.29-9.59-4.98&#10;&#9;&#9;&#9;c-3.56,0.29-6.6,2.65-9.07,5.22c-5.75,5.98-9.59,13.59-12.16,21.47c-2.57,7.89-3.94,16.11-5.3,24.29&#10;&#9;&#9;&#9;c-1.3,7.81-2.6,15.61-3.9,23.42c-0.27,1.63-0.54,3.29-0.34,4.94C813.72,715.97,814.47,717.62,815.85,718.53z" style="fill: url('#SVGID_31_');" transform="matrix(1, 0, 0, 1, 0, 0)"/><linearGradient id="SVGID_32_" gradientUnits="userSpaceOnUse" x1="885.5813" y1="823.8801" x2="648.8385" y2="527.4929">
			<stop offset="0" style="stop-color:#A5DADB"/>
			<stop offset="1" style="stop-color:#FFFFFF"/>
		</linearGradient><path d="M 817.60001 728.950012 A 7.84 7.84 0 0 1 809.76001 736.790012 A 7.84 7.84 0 0 1 801.92001 728.950012 A 7.84 7.84 0 0 1 809.76001 721.110012 A 7.84 7.84 0 0 1 817.60001 728.950012 Z" class="st37" style="fill: url('#SVGID_32_');" transform="matrix(1, 0, 0, 1, 0, 0)"/><linearGradient id="SVGID_33_" gradientUnits="userSpaceOnUse" x1="549.0482" y1="778.3058" x2="908.2916" y2="669.5694">
			<stop offset="0" style="stop-color:#FFFFFF"/>
			<stop offset="1" style="stop-color:#A5DADB"/>
		</linearGradient><path class="st38" d="M714.86,699.62c0.61-1.39,2.11-2.21,3.61-2.43c1.5-0.22,3.02,0.07,4.51,0.36&#10;&#9;&#9;&#9;c18.21,3.55,36.42,7.1,54.62,10.65c5.78,1.13,11.84,2.39,16.31,6.21c2.27,1.95,4.04,4.54,4.75,7.45c0.71,2.91,0.29,6.13-1.37,8.62&#10;&#9;&#9;&#9;c-2.1,3.16-5.93,4.83-9.71,5.17s-7.55-0.51-11.22-1.46c-20.69-5.39-40.35-14.69-57.63-27.27c-1.21-0.88-2.43-1.8-3.26-3.04&#10;&#9;&#9;&#9;C714.64,702.64,714.26,700.99,714.86,699.62z" style="fill: url('#SVGID_33_');" transform="matrix(1, 0, 0, 1, 0, 0)"/><linearGradient id="SVGID_34_" gradientUnits="userSpaceOnUse" x1="716.4691" y1="670.9398" x2="405.8589" y2="539.7219">
			<stop offset="0" style="stop-color:#A5DADB"/>
			<stop offset="1" style="stop-color:#FFFFFF"/>
		</linearGradient><path d="M 728.790012 672.830017 A 7.84 7.84 0 0 1 720.950012 680.670017 A 7.84 7.84 0 0 1 713.110012 672.830017 A 7.84 7.84 0 0 1 720.950012 664.990017 A 7.84 7.84 0 0 1 728.790012 672.830017 Z" class="st39" style="fill: url('#SVGID_34_');" transform="matrix(1, 0, 0, 1, 0, 0)"/><linearGradient id="SVGID_35_" gradientUnits="userSpaceOnUse" x1="715.024" y1="674.3605" x2="404.4138" y2="543.1427">
			<stop offset="0" style="stop-color:#A5DADB"/>
			<stop offset="1" style="stop-color:#FFFFFF"/>
		</linearGradient><path class="st40" d="M628.67,637.26c0.72-1.34,2.27-2.05,3.79-2.15s3.01,0.3,4.47,0.71c17.88,4.94,35.76,9.88,53.64,14.82&#10;&#9;&#9;&#9;c5.67,1.57,11.62,3.29,15.79,7.45c2.12,2.12,3.68,4.84,4.16,7.79c0.48,2.95-0.18,6.13-2.02,8.49c-2.34,2.99-6.28,4.36-10.07,4.41&#10;&#9;&#9;&#9;c-3.79,0.04-7.49-1.09-11.08-2.32c-20.21-6.96-39.1-17.75-55.37-31.61c-1.14-0.97-2.29-1.98-3.02-3.29&#10;&#9;&#9;&#9;C628.22,640.25,627.97,638.58,628.67,637.26z" style="fill: url('#SVGID_35_');" transform="matrix(1, 0, 0, 1, 0, 0)"/><linearGradient id="SVGID_36_" gradientUnits="userSpaceOnUse" x1="536.9423" y1="738.3105" x2="896.1857" y2="629.574">
			<stop offset="0" style="stop-color:#FFFFFF"/>
			<stop offset="1" style="stop-color:#A5DADB"/>
		</linearGradient><path class="st41" d="M684.02,697.75c-0.57-1.63,0.56-3.29,1.1-4.93c0.58-1.73,0.5-3.6,0.41-5.41c-0.1-1.82-0.2-3.68,0.31-5.43&#10;&#9;&#9;&#9;s1.79-3.39,3.57-3.8c1.96-0.46,3.91,0.64,5.63,1.7c2.66,1.64,5.32,3.28,7.98,4.92c0.9,0.56,1.82,1.13,2.52,1.93&#10;&#9;&#9;&#9;c1.1,1.28,1.52,3.03,1.5,4.72c-0.03,1.69-0.46,3.34-0.89,4.97c-0.53,2.01-1.18,4.19-2.91,5.34c-1.4,0.94-3.2,0.97-4.89,0.86&#10;&#9;&#9;&#9;c-3.78-0.24-7.53-1.03-11.09-2.34C685.93,699.79,684.49,699.09,684.02,697.75z" style="fill: url('#SVGID_36_');" transform="matrix(1, 0, 0, 1, 0, 0)"/><linearGradient id="SVGID_37_" gradientUnits="userSpaceOnUse" x1="715.8123" y1="672.4946" x2="405.2021" y2="541.2767">
			<stop offset="0" style="stop-color:#A5DADB"/>
			<stop offset="1" style="stop-color:#FFFFFF"/>
		</linearGradient><path class="st42" d="M602.73,634.19c-0.22-1.62,1.14-2.96,1.95-4.38c0.86-1.5,1.14-3.25,1.4-4.97c0.25-1.71,0.5-3.47,1.31-5&#10;&#9;&#9;&#9;c0.81-1.53,2.31-2.82,4.04-2.87c1.91-0.06,3.52,1.34,4.92,2.64c2.17,2.03,4.34,4.06,6.51,6.08c0.74,0.69,1.49,1.39,1.98,2.27&#10;&#9;&#9;&#9;c0.79,1.4,0.85,3.11,0.51,4.67s-1.06,3.02-1.77,4.46c-0.87,1.77-1.89,3.68-3.71,4.43c-1.48,0.61-3.17,0.3-4.71-0.11&#10;&#9;&#9;&#9;c-3.48-0.93-6.82-2.38-9.89-4.27C604.13,636.45,602.92,635.52,602.73,634.19z" style="fill: url('#SVGID_37_');" transform="matrix(1, 0, 0, 1, 0, 0)"/><linearGradient id="SVGID_38_" gradientUnits="userSpaceOnUse" x1="624.0309" y1="672.5396" x2="1126.8799" y2="622.9888">
			<stop offset="0" style="stop-color:#A5DADB"/>
			<stop offset="1" style="stop-color:#FFFFFF"/>
		</linearGradient><path class="st43" d="M694.46,654.41c0.84-1.23,2.55-1.67,3.99-1.27c1.44,0.4,2.6,1.49,3.38,2.76c0.78,1.27,1.24,2.7,1.69,4.12&#10;&#9;&#9;&#9;c1.15,3.64,2.3,7.28,3.46,10.93c0.4,1.27,0.8,2.68,0.27,3.9c-0.54,1.24-1.91,1.94-3.25,2.14c-3.34,0.5-6.87-1.78-7.78-5.04&#10;&#9;&#9;&#9;c-0.47-1.68-0.29-3.46-0.33-5.21c-0.04-2.12-0.4-4.22-1.05-6.24c-0.33-1.01-0.73-2-0.9-3.04&#10;&#9;&#9;&#9;C693.77,656.42,693.86,655.28,694.46,654.41z" style="fill: url('#SVGID_38_');" transform="matrix(1, 0, 0, 1, 0, 0)"/><linearGradient id="SVGID_39_" gradientUnits="userSpaceOnUse" x1="724.5422" y1="651.8297" x2="413.9321" y2="520.6118">
			<stop offset="0" style="stop-color:#A5DADB"/>
			<stop offset="1" style="stop-color:#FFFFFF"/>
		</linearGradient><path class="st44" d="M615.21,597.34c0.84-1.23,2.55-1.67,3.99-1.27s2.6,1.49,3.38,2.76c0.78,1.27,1.24,2.7,1.69,4.12&#10;&#9;&#9;&#9;c1.15,3.64,2.3,7.28,3.46,10.93c0.4,1.27,0.8,2.68,0.27,3.9c-0.54,1.24-1.91,1.94-3.25,2.14c-3.34,0.5-6.87-1.78-7.78-5.04&#10;&#9;&#9;&#9;c-0.47-1.68-0.29-3.46-0.33-5.21c-0.04-2.12-0.4-4.22-1.05-6.24c-0.33-1.01-0.73-2-0.9-3.04&#10;&#9;&#9;&#9;C614.52,599.36,614.61,598.22,615.21,597.34z" style="fill: url('#SVGID_39_');" transform="matrix(1, 0, 0, 1, 0, 0)"/><linearGradient id="SVGID_40_" gradientUnits="userSpaceOnUse" x1="532.4319" y1="723.409" x2="891.6753" y2="614.6725">
			<stop offset="0" style="stop-color:#FFFFFF"/>
			<stop offset="1" style="stop-color:#A5DADB"/>
		</linearGradient><path class="st45" d="M680.82,683.97c0.44-2.21,0.88-4.42,1.32-6.63c0.21-1.05,0.38-2.24-0.28-3.08&#10;&#9;&#9;&#9;c-0.74-0.94-2.12-0.95-3.29-1.17c-2.83-0.52-5.24-2.84-5.86-5.64c-0.25-1.11-0.24-2.28-0.66-3.34s-1.46-2.01-2.58-1.79&#10;&#9;&#9;&#9;c-1.08,0.21-1.67,1.36-2.1,2.38c-2.14,5.06-4.32,10.3-4.24,15.79c0.06,3.99,1.37,7.96,3.7,11.21s5.66,5.76,9.43,7.1&#10;&#9;&#9;&#9;c0.44,0.16,0.9,0.3,1.36,0.24c0.46-0.05,0.93-0.36,1.02-0.81c0.11-0.5-0.24-0.97-0.47-1.43c-0.55-1.08-0.49-2.38-0.18-3.55&#10;&#9;&#9;&#9;c0.31-1.17,0.86-2.26,1.3-3.39C680.03,687.96,680.43,685.96,680.82,683.97z" style="fill: url('#SVGID_40_');" transform="matrix(1, 0, 0, 1, 0, 0)"/><linearGradient id="SVGID_41_" gradientUnits="userSpaceOnUse" x1="858.1757" y1="845.7706" x2="621.433" y2="549.3834">
			<stop offset="0" style="stop-color:#A5DADB"/>
			<stop offset="1" style="stop-color:#FFFFFF"/>
		</linearGradient><path class="st46" d="M761.48,731.41c-6.16,0.13-10.75,6.43-11.23,12.57c-0.48,6.15,2.05,12.08,4.52,17.73&#10;&#9;&#9;&#9;c3.84,8.76,10.69,24.4,14.06,32.15c1.24,2.86,3.92,4.82,7.02,5.15c1.78,0.19,3.56,0.38,5.35,0.57c4.38,0.47,8.35-2.44,9.36-6.73&#10;&#9;&#9;&#9;c1.79-7.55,4.62-14.91,8.96-21.22c2.96-4.3,6.47-8.31,10.8-11.22c4.33-2.91,9.56-4.68,14.77-4.29c1.41-3.24,3.04-7.13,1.4-10.26&#10;&#9;&#9;&#9;c-1.49-2.86-4.85-4.12-7.92-5.13C799.53,745.26,778.18,741.61,761.48,731.41z" style="fill: url('#SVGID_41_');" transform="matrix(1, 0, 0, 1, 0, 0)"/><linearGradient id="SVGID_42_" gradientUnits="userSpaceOnUse" x1="848.8127" y1="853.2495" x2="612.0699" y2="556.8622">
			<stop offset="0" style="stop-color:#A5DADB"/>
			<stop offset="1" style="stop-color:#FFFFFF"/>
		</linearGradient><path class="st47" d="M841.19,792.79c-3.17,23.33-8.97,46.3-17.27,68.33c-1.42,3.78-2.98,7.63-5.75,10.56&#10;&#9;&#9;&#9;c-2.77,2.94-7.05,4.8-10.91,3.62c-5.51-1.68-7.63-8.23-8.74-13.88c-4.3-21.83-5.79-44.2-4.44-66.41&#10;&#9;&#9;&#9;c0.63-10.4,2.05-21.23,7.95-29.82c5.9-8.59,17.52-14.07,27.06-9.88c6.47,2.84,10.65,9.49,12.21,16.39S842.14,785.79,841.19,792.79&#10;&#9;&#9;&#9;z" style="fill: url('#SVGID_42_');" transform="matrix(1, 0, 0, 1, 0, 0)"/><linearGradient id="SVGID_43_" gradientUnits="userSpaceOnUse" x1="785.027" y1="904.199" x2="548.2842" y2="607.8118">
			<stop offset="0" style="stop-color:#A5DADB"/>
			<stop offset="1" style="stop-color:#FFFFFF"/>
		</linearGradient><path class="st48" d="M805.1,888.38c9.61,0.44,18.38,7.63,20.94,16.84c1.76,6.32,0.75,13.04-0.27,19.53&#10;&#9;&#9;&#9;c-2.44,15.55-4.89,31.1-7.33,46.65c-0.28,1.79-0.58,3.62-1.46,5.21s-2.48,2.9-4.29,2.92c-1.86,0.02-3.44-1.26-5.04-2.22&#10;&#9;&#9;&#9;c-0.81-0.49-2.33-0.21-3.81,0.33c-1.8,0.66-3.75-0.51-3.92-2.42c-2.13-24.22-2.58-50.52-4.92-74.48&#10;&#9;&#9;&#9;c-0.41-4.17-0.73-8.78,4.44-11.31C801.19,888.57,803.15,888.29,805.1,888.38z" style="fill: url('#SVGID_43_');" transform="matrix(1, 0, 0, 1, 0, 0)"/><linearGradient id="SVGID_44_" gradientUnits="userSpaceOnUse" x1="714.7502" y1="675.0085" x2="404.1401" y2="543.7907">
			<stop offset="0" style="stop-color:#A5DADB"/>
			<stop offset="1" style="stop-color:#FFFFFF"/>
		</linearGradient><path class="st49" d="M598.42,615.91c-0.73-1.85-1.97-3.54-3.67-4.58s-3.87-1.36-5.73-0.64c-1.9,0.75-3.27,2.5-4.02,4.4&#10;&#9;&#9;&#9;s-0.97,3.96-1.19,6c-0.22,2.1-0.44,4.19-0.66,6.29c-0.12,1.15-0.23,2.34,0.17,3.42c0.58,1.56,2.11,2.56,3.62,3.27&#10;&#9;&#9;&#9;c2.06,0.96,4.28,1.6,6.54,1.87c1.84,0.22,3.55-0.97,3.94-2.78c0.26-1.21,0.52-2.41,0.78-3.62&#10;&#9;&#9;&#9;C599.17,625.03,600.12,620.2,598.42,615.91z" style="fill: url('#SVGID_44_');" transform="matrix(1, 0, 0, 1, 0, 0)"/><linearGradient id="SVGID_45_" gradientUnits="userSpaceOnUse" x1="818.5162" y1="546.3254" x2="836.449" y2="546.3254" gradientTransform="matrix(0.9977 0.0679 -0.0679 0.9977 41.0484 -64.5363)">
			<stop offset="0" style="stop-color:#485865"/>
			<stop offset="0.9856" style="stop-color:#2B3F4E"/>
		</linearGradient><path class="st50" d="M838.49,537.29c-0.6,8.79-5.09,15.65-10.03,15.31s-8.46-7.74-7.86-16.53c0.6-8.79,5.09-15.65,10.03-15.31&#10;&#9;&#9;&#9;S839.09,528.5,838.49,537.29z" style="fill: url('#SVGID_45_');" transform="matrix(1, 0, 0, 1, 0, 0)"/><linearGradient id="SVGID_46_" gradientUnits="userSpaceOnUse" x1="991.4216" y1="739.339" x2="754.6788" y2="442.9517">
			<stop offset="0" style="stop-color:#A5DADB"/>
			<stop offset="1" style="stop-color:#FFFFFF"/>
		</linearGradient><path class="st51" d="M836.09,537.13c-0.44,6.43-3.72,11.44-7.33,11.19s-6.18-5.65-5.75-12.08c0.44-6.43,3.72-11.44,7.33-11.19&#10;&#9;&#9;&#9;C833.95,525.3,836.52,530.7,836.09,537.13z" style="fill: url('#SVGID_46_');" transform="matrix(1, 0, 0, 1, 0, 0)"/><linearGradient id="SVGID_47_" gradientUnits="userSpaceOnUse" x1="732.4259" y1="845.2559" x2="743.6205" y2="845.2559">
			<stop offset="0" style="stop-color:#485865"/>
			<stop offset="0.9856" style="stop-color:#2B3F4E"/>
		</linearGradient><path class="st52" d="M743.62,845.26c0,6.03-2.25,10.91-5.03,10.91s-6.17-4.88-6.17-10.91s3.39-10.91,6.17-10.91&#10;&#9;&#9;&#9;S743.62,839.23,743.62,845.26z" style="fill: url('#SVGID_47_');" transform="matrix(1, 0, 0, 1, 0, 0)"/><linearGradient id="SVGID_48_" gradientUnits="userSpaceOnUse" x1="796.8477" y1="875.9076" x2="808.5645" y2="875.9076">
			<stop offset="0" style="stop-color:#485865"/>
			<stop offset="0.9856" style="stop-color:#2B3F4E"/>
		</linearGradient><path class="st53" d="M808.56,875.91c0,6.31-2.36,11.42-5.26,11.42c-2.91,0-6.45-5.11-6.45-11.42c0-6.31,3.55-11.42,6.45-11.42&#10;&#9;&#9;&#9;C806.21,864.49,808.56,869.6,808.56,875.91z" style="fill: url('#SVGID_48_');" transform="matrix(1, 0, 0, 1, 0, 0)"/><path class="st10" d="M586.54,881.47c-14.95-14.48-24.69-30.24-29.26-46.38c-6.56-23.19-13.11-46.38-19.67-69.57&#10;&#9;&#9;c4.96,17.56,15.57,34.71,31.84,50.47L586.54,881.47" style="opacity: 0.27; fill: rgb(85, 207, 255);" transform="matrix(1, 0, 0, 1, 0, 0)"/><path class="st10" d="M702.31,795.92c-40.14-8.07-77.73-21.56-109.33-40.46c-6.73-4.02-13.03-8.2-18.9-12.5l15.59,64.2&#10;&#9;&#9;c5.45,3.99,11.29,7.86,17.54,11.6c29.33,17.53,64.21,30.06,101.46,37.54L702.31,795.92" style="opacity: 0.27; fill: rgb(85, 207, 255);" transform="matrix(1, 0, 0, 1, 0, 0)"/><linearGradient id="SVGID_49_" gradientUnits="userSpaceOnUse" x1="732.2227" y1="948.8053" x2="856.4379" y2="948.8053">
		<stop offset="0" style="stop-color:#B5DFFF;stop-opacity:0.2"/>
		<stop offset="0.4328" style="stop-color:#B3DEFE;stop-opacity:0.1122"/>
		<stop offset="0.6342" style="stop-color:#ABD9FB;stop-opacity:0.0713"/>
		<stop offset="0.7876" style="stop-color:#9FD0F5;stop-opacity:0.0402"/>
		<stop offset="0.9161" style="stop-color:#8CC4EE;stop-opacity:0.0141"/>
		<stop offset="0.9856" style="stop-color:#7FBBE8;stop-opacity:0"/>
	</linearGradient><path class="st54" d="M856.44,914.7c-39.79,8.65-82.88,10.65-124.22,6.07l3.54,59.95c37.72,4.18,77.03,2.35,113.34-5.54&#10;&#9;&#9;L856.44,914.7" style="opacity: 0.83; fill: url('#SVGID_49_');" transform="matrix(1, 0, 0, 1, 0, 0)"/><path class="st10" d="M955.59,863.97c-18.73,10.51-39.67,18.88-61.93,25.12l9.02-60.9c24.14-6.77,46.84-15.84,67.14-27.24&#10;&#9;&#9;L955.59,863.97" style="opacity: 0.27; fill: rgb(85, 207, 255);" transform="matrix(1, 0, 0, 1, 0, 0)"/><g transform="matrix(1, 0, 0, 1, 0, 0)">
			<g>
				<linearGradient id="SVGID_50_" gradientUnits="userSpaceOnUse" x1="1019.1197" y1="944.5184" x2="1019.1197" y2="716.1599">
					<stop offset="0.0144" style="stop-color:#7FBBE8;stop-opacity:0"/>
					<stop offset="1" style="stop-color:#B5DFFF"/>
				</linearGradient>
				<path d="M 989.1199951171875 944.52001953125 L 987.2100219726562 944 L 1049.1099853515625 716.1599731445312 L 1051.030029296875 716.6799926757812 Z" class="st55" style="fill: url('#SVGID_50_');"/>
			</g>
		</g><g transform="matrix(1, 0, 0, 1, 0, 0)">
				<linearGradient id="SVGID_51_" gradientUnits="userSpaceOnUse" x1="917.4285" y1="765.6803" x2="917.4285" y2="568.9088">
					<stop offset="0.0144" style="stop-color:#7FBBE8;stop-opacity:0"/>
					<stop offset="1" style="stop-color:#B5DFFF"/>
				</linearGradient>
				<path d="M 902.7100219726562 765.6799926757812 L 900.75 765.3599853515625 L 932.1400146484375 568.9099731445312 L 934.0999755859375 569.219970703125 Z" class="st56" style="fill: url('#SVGID_51_');"/>
			</g><g transform="matrix(1, 0, 0, 1, 0, 0)">
				<linearGradient id="SVGID_52_" gradientUnits="userSpaceOnUse" x1="614.4504" y1="731.5491" x2="614.4504" y2="514.0244">
					<stop offset="0.0144" style="stop-color:#7FBBE8;stop-opacity:0"/>
					<stop offset="1" style="stop-color:#B5DFFF"/>
				</linearGradient>
				<path d="M 628.5599975585938 731.5499877929688 L 598.3699951171875 514.2999877929688 L 600.3400268554688 514.02001953125 L 630.530029296875 731.27001953125 Z" class="st57" style="fill: url('#SVGID_52_');"/>
			</g><g transform="matrix(1, 0, 0, 1, 0, 0)">
				<linearGradient id="SVGID_53_" gradientUnits="userSpaceOnUse" x1="594.3459" y1="889.3223" x2="594.3459" y2="716.1922">
					<stop offset="0.0144" style="stop-color:#7FBBE8;stop-opacity:0"/>
					<stop offset="1" style="stop-color:#B5DFFF"/>
				</linearGradient>
				<path d="M 613.6500244140625 889.3200073242188 L 573.1099853515625 716.6500244140625 L 575.0399780273438 716.1900024414062 L 615.5800170898438 888.8699951171875 Z" class="st58" style="fill: url('#SVGID_53_');"/>
			</g><g transform="matrix(1, 0, 0, 1, 0, 0)">
				<linearGradient id="SVGID_54_" gradientUnits="userSpaceOnUse" x1="862.3075" y1="557.9714" x2="862.3075" y2="428.9229">
					<stop offset="0.0144" style="stop-color:#7FBBE8;stop-opacity:0"/>
					<stop offset="1" style="stop-color:#B5DFFF"/>
				</linearGradient>
				<path d="M 857.4199829101562 557.969970703125 L 855.4500122070312 557.7899780273438 L 867.1900024414062 428.9200134277344 L 869.1699829101562 429.1000061035156 Z" class="st59" style="fill: url('#SVGID_54_');"/>
			</g><g transform="matrix(1, 0, 0, 1, 0, 0)">
				<linearGradient id="SVGID_55_" gradientUnits="userSpaceOnUse" x1="462.2261" y1="794.0815" x2="462.2261" y2="595.7411">
					<stop offset="0.0144" style="stop-color:#7FBBE8;stop-opacity:0"/>
					<stop offset="1" style="stop-color:#B5DFFF"/>
				</linearGradient>
				<path d="M 480.4599914550781 794.0800170898438 L 442.04998779296875 596.1199951171875 L 444 595.739990234375 L 482.4100036621094 793.7000122070312 Z" class="st60" style="fill: url('#SVGID_55_');"/>
			</g><path class="st61" d="M856.33,440.4c-0.05-0.99-0.16-1.97-0.23-2.96c-1.63-24.42-6.64-47.92-14.64-70.02&#10;&#9;&#9;c-0.12-0.34-0.23-0.7-0.35-1.04c-0.33-0.9-0.72-1.78-1.06-2.68c-0.2-0.54-0.43-1.07-0.63-1.61c-6.88-17.76-15.64-34.6-26.1-50.21&#10;&#9;&#9;c-0.54-0.8-1.09-1.6-1.64-2.39c-11.65-16.97-25.27-32.47-40.53-46.19c-0.76-0.68-1.55-1.33-2.32-2.01&#10;&#9;&#9;c-2.94-2.58-5.94-5.1-8.99-7.54c-2.01-1.61-4.02-3.23-6.08-4.78c-12.99-9.77-26.94-18.33-41.67-25.54c-1.04-0.51-2.08-1-3.13-1.49&#10;&#9;&#9;c-33.28-15.73-70.42-24.57-109.61-24.57c-39.18,0-76.33,8.84-109.61,24.57c-1.04,0.49-2.08,0.98-3.11,1.48&#10;&#9;&#9;c-14.73,7.21-28.68,15.76-41.67,25.53c-2.06,1.55-4.07,3.17-6.09,4.79c-3.07,2.46-6.08,4.99-9.04,7.58&#10;&#9;&#9;c-0.77,0.68-1.57,1.33-2.33,2.02c-15.24,13.7-28.84,29.18-40.47,46.12c-0.55,0.8-1.1,1.59-1.64,2.4&#10;&#9;&#9;c-10.46,15.61-19.22,32.44-26.1,50.2c-0.21,0.55-0.44,1.09-0.65,1.64c-0.34,0.9-0.73,1.78-1.06,2.68&#10;&#9;&#9;c-0.12,0.32-0.22,0.66-0.33,0.98c-8.01,22.13-13.03,45.67-14.66,70.12c-0.07,0.99-0.17,1.97-0.23,2.96&#10;&#9;&#9;c-0.26,4.75-0.42,9.52-0.42,14.33c0,16.97,1.7,33.55,4.85,49.62c0.23,1.16,0.45,2.32,0.69,3.48c4.23,20.08,10.8,39.3,19.42,57.37&#10;&#9;&#9;c0.69,1.45,1.43,2.88,2.15,4.32c13.54,27.05,31.7,51.38,53.45,71.98c2.16,2.05,4.35,4.07,6.59,6.05&#10;&#9;&#9;c44.04,38.93,101.43,63.02,164.35,64.45c1.96,0.09,3.93,0.14,5.9,0.14c1.98,0,3.94-0.05,5.9-0.14&#10;&#9;&#9;c62.93-1.43,120.35-25.53,164.39-64.48c2.21-1.95,4.37-3.95,6.51-5.97c21.77-20.61,39.94-44.95,53.49-72.02&#10;&#9;&#9;c0.72-1.44,1.46-2.87,2.16-4.32c8.61-18.05,15.17-37.24,19.4-57.29c0.25-1.16,0.47-2.33,0.7-3.5c3.16-16.08,4.86-32.68,4.86-49.67&#10;&#9;&#9;C856.76,449.95,856.6,445.16,856.33,440.4z M853.15,438.48c-20.57,6.98-42.57,13.15-65.78,18.38c0-0.7,0.04-1.38,0.04-2.08&#10;&#9;&#9;c0-23.12-2.27-45.52-6.47-66.85c20.46-5.86,39.67-12.68,57.4-20.33C846.51,389.93,851.58,413.74,853.15,438.48z M414.34,454.78&#10;&#9;&#9;c0-22.84,2.24-44.96,6.36-66.03c20.7,5.8,42.62,10.65,65.55,14.38c-1.53,16.69-2.34,33.97-2.34,51.66c0,4.96,0.08,9.88,0.2,14.77&#10;&#9;&#9;c-24.19-3.1-47.5-7.15-69.73-12.05C414.38,456.59,414.34,455.69,414.34,454.78z M442.17,320.82c0.59-1.3,1.19-2.57,1.8-3.85&#10;&#9;&#9;c6.29-13.36,13.46-25.85,21.4-37.33c13.89,4.82,28.87,8.89,44.72,12.14c-0.94,2.55-1.85,5.16-2.75,7.79&#10;&#9;&#9;c-0.37,1.09-0.73,2.18-1.09,3.28c-4.14,12.59-7.8,26.02-10.87,40.19c-20.02-3.6-39.07-8.19-56.89-13.68&#10;&#9;&#9;C439.68,326.49,440.9,323.63,442.17,320.82z M504.88,236.19c1.02-0.84,2.06-1.64,3.09-2.45c1.26,0.5,2.55,0.97,3.84,1.45&#10;&#9;&#9;c2.02,0.75,4.06,1.48,6.16,2.17c5.26,1.74,10.75,3.32,16.46,4.73c-8.68,13.22-16.5,29.01-23.27,46.87&#10;&#9;&#9;c-15.61-3.17-30.37-7.13-44.06-11.81c10.02-14.09,21.21-26.58,33.36-37.19C501.92,238.68,503.39,237.41,504.88,236.19z&#10;&#9;&#9; M693.91,236.24c1.48,1.22,2.93,2.48,4.39,3.75c12.14,10.61,23.33,23.09,33.34,37.18c-13.69,4.68-28.47,8.63-44.07,11.8&#10;&#9;&#9;c-6.77-17.87-14.59-33.67-23.28-46.89c5.69-1.4,11.21-2.96,16.46-4.7c2.12-0.7,4.17-1.45,6.21-2.2c1.28-0.47,2.53-0.95,3.77-1.45&#10;&#9;&#9;C691.79,234.56,692.86,235.38,693.91,236.24z M756.54,320.81c1.28,2.82,2.5,5.69,3.7,8.59c-17.82,5.49-36.86,10.09-56.89,13.69&#10;&#9;&#9;c-3.08-14.19-6.74-27.63-10.88-40.23c-0.36-1.1-0.72-2.2-1.09-3.28c-0.9-2.63-1.81-5.24-2.75-7.79&#10;&#9;&#9;c15.84-3.25,30.84-7.31,44.73-12.13c7.94,11.48,15.11,23.97,21.39,37.32C755.35,318.25,755.96,319.52,756.54,320.81z&#10;&#9;&#9; M711.77,454.78c0,5.09-0.09,10.13-0.22,15.15c-19.48,2.42-39.51,4.22-60,5.36c0.1-6.77,0.17-13.59,0.17-20.51&#10;&#9;&#9;c0-15.26-0.27-30.14-0.77-44.6c20.07-1.42,39.63-3.63,58.52-6.61C710.98,420.11,711.77,437.24,711.77,454.78z M486.95,454.78&#10;&#9;&#9;c0-17.54,0.79-34.66,2.29-51.21c18.89,2.98,38.45,5.19,58.52,6.61c-0.49,14.46-0.77,29.34-0.77,44.6c0,6.93,0.07,13.75,0.17,20.53&#10;&#9;&#9;c-20.48-1.14-40.53-2.92-60-5.34C487.03,464.93,486.95,459.88,486.95,454.78z M510.61,298.94c0.76-2.21,1.52-4.42,2.31-6.58&#10;&#9;&#9;c5.99,1.18,12.08,2.27,18.31,3.21c3.75,0.57,7.53,1.1,11.35,1.58c4.89,0.61,9.85,1.13,14.86,1.58&#10;&#9;&#9;c-2.42,15.78-4.46,33.05-6.08,51.49c-18.28-1.43-36.02-3.67-53.08-6.63c3.15-14.62,6.9-28.46,11.19-41.36&#10;&#9;&#9;C509.84,301.11,510.23,300.04,510.61,298.94z M545.71,231.29c13.37-16.5,28.39-26.97,44.33-29.94&#10;&#9;&#9;c-5.88,4.99-11.4,14.63-16.39,28.19c-0.37,1-0.74,2.03-1.1,3.07c-1.34,3.84-2.63,7.98-3.89,12.38c-10.3-1.09-20.16-2.74-29.52-4.84&#10;&#9;&#9;c1.34-1.93,2.7-3.8,4.08-5.61C544.05,233.45,544.87,232.33,545.71,231.29z M655.53,234.58c1.37,1.8,2.72,3.65,4.05,5.58&#10;&#9;&#9;c-9.36,2.11-19.24,3.74-29.53,4.83c-1.25-4.39-2.54-8.51-3.88-12.35c-0.36-1.05-0.73-2.07-1.1-3.08&#10;&#9;&#9;c-5-13.57-10.51-23.21-16.4-28.21c15.95,2.98,30.98,13.45,44.36,29.97C653.87,232.37,654.7,233.49,655.53,234.58z M688.11,298.93&#10;&#9;&#9;c0.38,1.1,0.77,2.17,1.14,3.28c4.29,12.9,8.04,26.75,11.2,41.39c-17.05,2.97-34.8,5.2-53.08,6.63&#10;&#9;&#9;c-1.63-18.45-3.67-35.72-6.09-51.52c5-0.45,9.96-0.97,14.84-1.58c3.81-0.47,7.57-1.01,11.3-1.58c6.23-0.94,12.38-1.98,18.38-3.17&#10;&#9;&#9;C686.6,294.53,687.35,296.73,688.11,298.93z M648.7,454.78c0,6.96-0.07,13.84-0.19,20.67c-15.65,0.82-31.53,1.29-47.64,1.32v-64.75&#10;&#9;&#9;c15.94-0.03,31.62-0.62,47.02-1.64C648.41,424.85,648.7,439.67,648.7,454.78z M597.84,708.94c-7.65-1.26-14.93-11.99-21.4-30&#10;&#9;&#9;c7.07,0.32,14.21,0.51,21.4,0.53V708.94z M550.02,454.78c0-15.11,0.29-29.93,0.8-44.4c15.4,1.02,31.08,1.61,47.02,1.64v64.75&#10;&#9;&#9;c-16.11-0.03-32-0.49-47.64-1.31C550.09,468.62,550.02,461.74,550.02,454.78z M561.25,295.35c0.16-1.03,0.33-2.05,0.5-3.07&#10;&#9;&#9;c2.71-16.57,5.82-31.37,9.24-44.03c8.71,0.85,17.68,1.32,26.86,1.36v41.24v3.03v3.67c-12.49-0.04-24.74-0.59-36.69-1.57&#10;&#9;&#9;C561.18,295.78,561.21,295.56,561.25,295.35z M576.88,229.43c6.36-17.28,13.48-27.58,20.96-28.82v28.4v3.03v14.54&#10;&#9;&#9;c-8.9-0.05-17.61-0.49-26.06-1.29c1.29-4.58,2.62-8.85,3.99-12.8C576.14,231.44,576.51,230.44,576.88,229.43z M600.87,200.61&#10;&#9;&#9;c7.48,1.23,14.61,11.54,20.97,28.83c0.37,1.01,0.74,2.01,1.11,3.07c1.36,3.94,2.69,8.19,3.98,12.76&#10;&#9;&#9;c-8.45,0.8-17.15,1.27-26.05,1.31v-14.54v-3.03V200.61z M637.47,295.35c0.03,0.21,0.06,0.42,0.1,0.62&#10;&#9;&#9;c-11.96,0.98-24.2,1.53-36.69,1.57v-3.67v-3.03v-41.24c9.18-0.05,18.14-0.54,26.85-1.39c3.42,12.67,6.53,27.48,9.25,44.06&#10;&#9;&#9;C637.14,293.3,637.31,294.32,637.47,295.35z M600.87,355.12c14.79-0.04,29.34-0.59,43.58-1.63c1.49,17.12,2.62,35.16,3.34,53.87&#10;&#9;&#9;c-15.37,1.02-31.01,1.6-46.92,1.63V355.12z M600.87,352.09v-51.52c12.65-0.04,25.05-0.61,37.15-1.61&#10;&#9;&#9;c2.43,15.84,4.5,33.11,6.16,51.51C630.04,351.51,615.58,352.06,600.87,352.09z M597.84,300.58v51.5&#10;&#9;&#9;c-14.71-0.04-29.15-0.62-43.31-1.65c1.66-18.38,3.73-35.64,6.15-51.46C572.8,299.98,585.19,300.54,597.84,300.58z M597.84,355.11&#10;&#9;&#9;v53.88c-15.91-0.03-31.55-0.62-46.92-1.63c0.72-18.73,1.85-36.79,3.34-53.92C568.51,354.48,583.04,355.08,597.84,355.11z&#10;&#9;&#9; M597.84,479.8v73.78c-14.86-0.03-29.5-0.53-43.92-1.41c-1.92-23.14-3.19-47.92-3.68-73.68&#10;&#9;&#9;C565.88,479.31,581.75,479.77,597.84,479.8z M597.84,556.6v58.01c-12.4-0.03-24.65-0.42-36.71-1.15&#10;&#9;&#9;c-2.79-17.7-5.14-37.28-6.94-58.25C568.52,556.08,583.07,556.57,597.84,556.6z M597.84,617.64v58.8&#10;&#9;&#9;c-7.56-0.02-15.05-0.23-22.47-0.58c-5.23-15.43-9.9-35.6-13.76-59.34C573.53,617.23,585.61,617.61,597.84,617.64z M600.87,679.47&#10;&#9;&#9;c7.19-0.02,14.33-0.2,21.4-0.52c-6.47,18-13.75,28.73-21.4,29.99V679.47z M600.87,676.44v-58.8c12.23-0.03,24.32-0.42,36.23-1.13&#10;&#9;&#9;c-3.86,23.75-8.53,43.92-13.76,59.35C615.92,676.22,608.43,676.42,600.87,676.44z M600.87,614.61v-58&#10;&#9;&#9;c14.76-0.03,29.33-0.5,43.65-1.36c-1.81,20.95-4.15,40.52-6.94,58.21C625.52,614.19,613.27,614.59,600.87,614.61z M600.87,553.59&#10;&#9;&#9;V479.8c16.1-0.03,31.96-0.5,47.6-1.32c-0.49,25.77-1.75,50.57-3.68,73.72C630.38,553.08,615.73,553.56,600.87,553.59z&#10;&#9;&#9; M647.64,353.23c18.4-1.45,36.26-3.71,53.42-6.71c3.56,17.07,6.3,35.18,8.12,54.06c-18.82,2.96-38.31,5.16-58.32,6.57&#10;&#9;&#9;C650.17,388.34,649.09,370.28,647.64,353.23z M656.18,294.11c-4.85,0.6-9.76,1.12-14.72,1.57c-0.22,0.02-0.44,0.03-0.66,0.05&#10;&#9;&#9;c-0.01-0.04-0.01-0.07-0.02-0.11c-0.16-1.03-0.32-2.06-0.49-3.08c-2.73-16.76-5.89-31.78-9.4-44.62&#10;&#9;&#9;c10.64-1.16,20.85-2.89,30.5-5.13c8.71,13.09,16.55,28.86,23.33,46.77C675.48,291.37,665.96,292.89,656.18,294.11z M567.82,247.92&#10;&#9;&#9;c-3.51,12.84-6.66,27.86-9.4,44.62c-0.17,1.01-0.33,2.05-0.49,3.08c-0.01,0.04-0.01,0.08-0.02,0.13c-0.26-0.02-0.53-0.04-0.8-0.06&#10;&#9;&#9;c-4.91-0.45-9.75-0.98-14.54-1.57c-9.79-1.22-19.32-2.76-28.57-4.57c6.78-17.91,14.63-33.68,23.34-46.77&#10;&#9;&#9;C546.99,245.01,557.18,246.76,567.82,247.92z M551.08,353.22c-1.45,17.06-2.53,35.12-3.22,53.94c-20.01-1.41-39.5-3.61-58.32-6.57&#10;&#9;&#9;c1.82-18.89,4.56-37,8.13-54.08C514.83,349.51,532.68,351.77,551.08,353.22z M547.21,478.33c0.46,25.93,1.67,50.64,3.52,73.62&#10;&#9;&#9;c-19.25-1.26-38.04-3.25-56.27-5.92c-3.91-22.94-6.39-47.47-7.19-73.04C506.73,475.41,526.75,477.19,547.21,478.33z M550.97,555&#10;&#9;&#9;c1.76,21.05,4.08,40.58,6.85,58.26c-16.4-1.08-32.45-2.8-48.07-5.1c-6.02-17.96-10.99-37.79-14.75-59.01&#10;&#9;&#9;C513.15,551.79,531.83,553.75,550.97,555z M558.31,616.32c3.83,23.62,8.49,43.77,13.79,59.38c-10.28-0.56-20.41-1.44-30.37-2.62&#10;&#9;&#9;c-11.89-16.14-22.35-37.12-30.87-61.72C526.3,613.6,542.14,615.27,558.31,616.32z M573.21,678.78&#10;&#9;&#9;c5.11,14.2,10.78,24.28,16.84,29.42c-16.52-3.08-32.03-14.26-45.76-31.8C553.79,677.47,563.43,678.27,573.21,678.78z&#10;&#9;&#9; M625.51,678.78c9.77-0.51,19.42-1.3,28.92-2.37c-13.73,17.54-29.24,28.71-45.76,31.8C614.73,703.06,620.4,692.98,625.51,678.78z&#10;&#9;&#9; M626.62,675.69c5.31-15.61,9.96-35.75,13.79-59.36c16.18-1.05,32.02-2.73,47.45-4.97c-8.52,24.59-18.97,45.58-30.86,61.71&#10;&#9;&#9;C647.03,674.24,636.89,675.12,626.62,675.69z M640.89,613.26c2.77-17.66,5.09-37.18,6.85-58.22c19.13-1.24,37.82-3.21,55.97-5.85&#10;&#9;&#9;c-3.76,21.2-8.73,41.01-14.74,58.95C673.34,610.45,657.3,612.18,640.89,613.26z M647.98,552c1.86-23.01,3.07-47.73,3.53-73.69&#10;&#9;&#9;c20.46-1.14,40.48-2.94,59.94-5.36c-0.8,25.6-3.28,50.16-7.2,73.12C686.02,548.75,667.23,550.75,647.98,552z M703.95,346.01&#10;&#9;&#9;c20.21-3.65,39.43-8.33,57.42-13.9c6.77,16.84,12.17,34.86,16.04,53.75c-20.59,5.76-42.42,10.58-65.26,14.28&#10;&#9;&#9;C710.32,381.24,707.55,363.12,703.95,346.01z M680.62,234.33c-2.25,0.75-4.57,1.46-6.9,2.15c-3.64,1.07-7.36,2.09-11.2,3&#10;&#9;&#9;c-1.06-1.55-2.11-3.1-3.19-4.57c-0.83-1.13-1.68-2.18-2.53-3.27c-10.65-13.69-22.36-23.73-34.8-29.26&#10;&#9;&#9;c23.71,4,46.05,14.13,66.12,29.29C685.69,232.59,683.17,233.48,680.62,234.33z M541.93,231.64c-0.85,1.09-1.7,2.15-2.54,3.28&#10;&#9;&#9;c-1.08,1.47-2.13,3.01-3.19,4.56c-3.85-0.92-7.6-1.91-11.24-2.99c-2.37-0.7-4.72-1.42-7-2.18c-2.52-0.84-4.98-1.72-7.38-2.63&#10;&#9;&#9;c20.08-15.16,42.42-25.29,66.13-29.29C564.29,207.91,552.58,217.95,541.93,231.64z M494.77,345.97&#10;&#9;&#9;c-3.6,17.12-6.37,35.26-8.21,54.17c-22.85-3.7-44.67-8.52-65.26-14.28c3.88-18.9,9.27-36.92,16.05-53.78&#10;&#9;&#9;C455.34,337.66,474.57,342.32,494.77,345.97z M484.23,472.58c0.79,25.52,3.24,50.03,7.13,72.99c-23.89-3.61-46.77-8.39-68.43-14.21&#10;&#9;&#9;c-5.16-22.44-8.08-46.22-8.48-70.84C436.71,465.43,460.03,469.49,484.23,472.58z M491.91,548.69c3.73,21.16,8.67,40.97,14.65,58.97&#10;&#9;&#9;c-21.45-3.29-42.07-7.68-61.65-13.06c-8.87-18.46-16.02-38.59-21.18-59.97C445.34,540.39,468.14,545.11,491.91,548.69z&#10;&#9;&#9; M507.65,610.87c8.37,24.38,18.64,45.32,30.32,61.74c-14.54-1.84-28.7-4.32-42.42-7.39c-19.19-17.95-35.8-40.74-48.92-67.07&#10;&#9;&#9;C466.04,603.4,486.45,607.67,507.65,610.87z M540.41,675.97c11.05,14.7,23.28,25.4,36.31,31.2c-27.93-4.71-53.93-17.99-76.61-37.89&#10;&#9;&#9;C513.19,672.06,526.63,674.31,540.41,675.97z M658.33,675.95c13.77-1.66,27.22-3.9,40.28-6.66c-22.67,19.9-48.68,33.18-76.61,37.89&#10;&#9;&#9;C635.03,701.37,647.27,690.66,658.33,675.95z M660.75,672.61c11.68-16.42,21.95-37.35,30.31-61.72&#10;&#9;&#9;c21.21-3.2,41.61-7.49,61.03-12.74c-13.12,26.34-29.74,49.13-48.94,67.09C689.44,668.31,675.27,670.77,660.75,672.61z&#10;&#9;&#9; M692.16,607.68c5.98-17.99,10.91-37.79,14.64-58.94c23.76-3.57,46.57-8.28,68.17-14.03c-5.16,21.35-12.3,41.46-21.16,59.9&#10;&#9;&#9;C734.23,599.99,713.61,604.39,692.16,607.68z M707.35,545.62c3.9-22.97,6.35-47.49,7.14-73.02c24.2-3.1,47.51-7.16,69.78-12.06&#10;&#9;&#9;c-0.4,24.64-3.32,48.44-8.49,70.89C754.13,537.24,731.23,542.01,707.35,545.62z M714.6,469.56c0.13-4.9,0.2-9.82,0.2-14.79&#10;&#9;&#9;c0-17.69-0.81-34.96-2.34-51.66c22.94-3.73,44.86-8.57,65.55-14.37c4.12,21.07,6.36,43.19,6.36,66.03c0,0.91-0.04,1.81-0.05,2.73&#10;&#9;&#9;C762.09,462.41,738.79,466.47,714.6,469.56z M834.8,358.64c0.7,1.72,1.38,3.45,2.05,5.18c0.14,0.36,0.29,0.72,0.43,1.09&#10;&#9;&#9;c-17.58,7.58-36.63,14.33-56.95,20.14c-3.89-18.91-9.29-36.96-16.07-53.84c3.37-1.07,6.68-2.18,9.95-3.31&#10;&#9;&#9;c1.37-0.47,2.74-0.95,4.1-1.43c11.36-4.06,22.14-8.49,32.27-13.27C820.12,327.4,828.24,342.62,834.8,358.64z M808.92,310.82&#10;&#9;&#9;c-10.78,5.05-22.32,9.7-34.5,13.94c-1.41,0.49-2.81,0.98-4.23,1.45c-2.33,0.78-4.68,1.55-7.06,2.3c-0.85-2.07-1.7-4.14-2.59-6.17&#10;&#9;&#9;c-0.57-1.3-1.17-2.57-1.76-3.86c-6.55-14.3-14.09-27.64-22.5-39.87c11.49-4.11,22.2-8.73,32.02-13.79&#10;&#9;&#9;C783.6,278.45,797.26,293.89,808.92,310.82z M745.52,246.78c2.28,1.61,4.56,3.21,6.78,4.89c4.69,3.54,9.23,7.28,13.66,11.13&#10;&#9;&#9;c-9.64,4.89-20.14,9.35-31.41,13.33c-9.28-13.16-19.55-25-30.68-35.23c-1.41-1.29-2.85-2.52-4.29-3.77&#10;&#9;&#9;c-1.87-1.62-3.75-3.19-5.67-4.72c5.32-2.22,10.32-4.63,14.97-7.2C721.74,231.39,733.96,238.64,745.52,246.78z M705.61,223.75&#10;&#9;&#9;c-4.46,2.36-9.23,4.57-14.3,6.62c-15.43-11.89-32.2-20.87-49.92-26.43C663.94,207.71,685.47,214.45,705.61,223.75z M557.33,203.94&#10;&#9;&#9;c-17.72,5.56-34.49,14.54-49.92,26.44c-5.07-2.05-9.85-4.26-14.31-6.63C513.24,214.45,534.78,207.71,557.33,203.94z M446.42,251.67&#10;&#9;&#9;c2.22-1.68,4.5-3.28,6.78-4.89c11.55-8.14,23.76-15.38,36.61-21.54c4.65,2.57,9.66,4.97,14.98,7.19c-1.91,1.53-3.8,3.1-5.67,4.72&#10;&#9;&#9;c-1.44,1.25-2.89,2.48-4.31,3.78c-11.12,10.22-21.37,22.05-30.64,35.19c-11.26-3.98-21.77-8.44-31.41-13.33&#10;&#9;&#9;C437.2,258.94,441.73,255.21,446.42,251.67z M430.43,264.82c9.82,5.05,20.53,9.66,32.02,13.78c-8.41,12.24-15.96,25.58-22.5,39.88&#10;&#9;&#9;c-0.59,1.29-1.19,2.56-1.76,3.86c-0.89,2.01-1.73,4.07-2.57,6.12c-2.37-0.75-4.77-1.47-7.1-2.25c-1.41-0.47-2.76-0.99-4.16-1.47&#10;&#9;&#9;c-12.19-4.24-23.76-8.88-34.55-13.93C401.47,293.88,415.12,278.45,430.43,264.82z M388.14,313.2c10.13,4.77,20.95,9.18,32.31,13.24&#10;&#9;&#9;c1.36,0.49,2.7,0.98,4.07,1.45c3.27,1.13,6.59,2.21,9.95,3.27c-6.79,16.9-12.19,34.96-16.09,53.88&#10;&#9;&#9;c-20.32-5.81-39.37-12.57-56.95-20.14c0.14-0.36,0.29-0.72,0.43-1.08c0.68-1.76,1.36-3.51,2.07-5.25&#10;&#9;&#9;C370.5,342.58,378.6,327.38,388.14,313.2z M360.38,367.59c17.73,7.65,36.93,14.48,57.4,20.34c-4.2,21.33-6.47,43.73-6.47,66.84&#10;&#9;&#9;c0,0.68,0.03,1.35,0.04,2.04c-23.21-5.22-45.22-11.37-65.78-18.35C347.14,413.73,352.21,389.93,360.38,367.59z M344.99,454.78&#10;&#9;&#9;c0-4.47,0.12-8.92,0.35-13.33c20.66,7.01,42.78,13.17,66.07,18.4c0.35,24.53,3.17,48.24,8.22,70.64&#10;&#9;&#9;c-24.99-6.87-48.27-15.13-69.47-24.56C346.77,489.39,344.99,472.29,344.99,454.78z M350.97,509.45&#10;&#9;&#9;c21.24,9.34,44.52,17.5,69.43,24.3c5.02,21.28,12.03,41.33,20.7,59.79c-25.18-7.14-48.58-15.94-69.73-26.12&#10;&#9;&#9;C362.34,549.22,355.44,529.79,350.97,509.45z M373.57,571.7c21.09,9.9,44.3,18.45,69.2,25.39c12.65,25.99,28.67,48.63,47.18,66.83&#10;&#9;&#9;c-20.9-4.97-40.71-11.31-59.14-18.86C407.51,624.41,388.05,599.56,373.57,571.7z M437.63,650.98c17.75,6.8,36.65,12.53,56.5,17.02&#10;&#9;&#9;c18.9,17.53,40.27,30.42,63.2,37.62C512.37,698.1,471.36,678.82,437.63,650.98z M641.39,705.61c22.94-7.2,44.31-20.09,63.22-37.64&#10;&#9;&#9;c19.85-4.49,38.76-10.22,56.5-17.02C727.38,678.81,686.35,698.1,641.39,705.61z M767.86,645.11&#10;&#9;&#9;c-18.41,7.53-38.21,13.85-59.08,18.81c18.5-18.19,34.52-40.83,47.16-66.81c24.91-6.94,48.12-15.5,69.21-25.41&#10;&#9;&#9;C810.65,599.58,791.17,624.44,767.86,645.11z M827.34,567.43c-21.15,10.18-44.55,18.97-69.73,26.12&#10;&#9;&#9;c8.67-18.45,15.67-38.49,20.69-59.75c24.92-6.79,48.2-14.95,69.43-24.29C843.26,529.83,836.36,549.24,827.34,567.43z&#10;&#9;&#9; M848.55,505.97c-21.19,9.43-44.49,17.68-69.47,24.55c5.05-22.4,7.87-46.11,8.22-70.63c23.3-5.24,45.39-11.43,66.07-18.44&#10;&#9;&#9;c0.23,4.42,0.35,8.86,0.35,13.33C853.73,472.31,851.95,489.43,848.55,505.97z" style="opacity: 0.4; fill: rgb(0, 217, 255);" transform="matrix(1, 0, 0, 1, 0, 0)"/><path d="M 210.14999389648438 121.72000122070312 L 209.92999267578125 199.72000122070312 L 287.0299987792969 244.22999572753906 L 287.25 166.22999572753906 Z" class="st10" style="opacity: 0.27; fill: rgb(85, 207, 255);" transform="matrix(1, 0, 0, 1, 0, 0)"/><path d="M 98.83999633789062 658.1699829101562 L 98.62000274658203 736.1699829101562 L 175.7100067138672 780.6799926757812 L 175.94000244140625 702.6799926757812 Z" class="st10" style="opacity: 0.27; fill: rgb(85, 207, 255);" transform="matrix(1, 0, 0, 1, 0, 0)"/><path d="M 1209.699951171875 236.1300048828125 L 1209.47998046875 314.1300048828125 L 1286.5699462890625 358.6400146484375 L 1286.7900390625 280.6400146484375 Z" class="st10" style="opacity: 0.27; fill: rgb(85, 207, 255);" transform="matrix(1, 0, 0, 1, 0, 0)"/><path d="M 1100.1300048828125 1042.530029296875 L 1099.9100341796875 1120.52001953125 L 1177 1165.030029296875 L 1177.219970703125 1087.0400390625 Z" class="st10" style="opacity: 0.27; fill: rgb(85, 207, 255);" transform="matrix(1, 0, 0, 1, 0, 0)"/><path d="M 336.54998779296875 786.8499755859375 L 336.3299865722656 864.8499755859375 L 413.42999267578125 909.3499755859375 L 413.6499938964844 831.3599853515625 Z" class="st10" style="opacity: 0.27; fill: rgb(85, 207, 255);" transform="matrix(1, 0, 0, 1, 0, 0)"/><path d="M 583.75 41.13999938964844 L 583.5 131.44000244140625 L 672.760009765625 182.97999572753906 L 673.010009765625 92.66999816894531 Z" class="st10" style="opacity: 0.27; fill: rgb(85, 207, 255);" transform="matrix(1, 0, 0, 1, 0, 0)"/><path d="M 1112.93994140625 505.6400146484375 L 1112.7099609375 583.6400146484375 L 1189.81005859375 628.1599731445312 L 1190.030029296875 550.1500244140625 Z" class="st10" style="opacity: 0.27; fill: rgb(85, 207, 255);" transform="matrix(1, 0, 0, 1, 0, 0)"/><radialGradient id="SVGID_56_" cx="657.2698" cy="244.2327" r="21.8961" gradientUnits="userSpaceOnUse">
		<stop offset="0" style="stop-color:#FFFFFF"/>
		<stop offset="1" style="stop-color:#FFFFFF;stop-opacity:0"/>
	</radialGradient><path d="M 679.170019 244.229996 A 21.9 21.9 0 0 1 657.27002 266.129995 A 21.9 21.9 0 0 1 635.37002 244.229996 A 21.9 21.9 0 0 1 657.27002 222.329996 A 21.9 21.9 0 0 1 679.170019 244.229996 Z" class="st62" style="fill: url('#SVGID_56_');" transform="matrix(1, 0, 0, 1, 0, 0)"/><radialGradient id="SVGID_57_" cx="442.0459" cy="332.731" r="21.8961" gradientUnits="userSpaceOnUse">
		<stop offset="0" style="stop-color:#FFFFFF"/>
		<stop offset="1" style="stop-color:#FFFFFF;stop-opacity:0"/>
	</radialGradient><path d="M 463.949987 332.730011 A 21.9 21.9 0 0 1 442.049988 354.630011 A 21.9 21.9 0 0 1 420.149988 332.730011 A 21.9 21.9 0 0 1 442.049988 310.830011 A 21.9 21.9 0 0 1 463.949987 332.730011 Z" class="st63" style="fill: url('#SVGID_57_');" transform="matrix(1, 0, 0, 1, 0, 0)"/><radialGradient id="SVGID_58_" cx="782.4449" cy="454.7778" r="21.8961" gradientUnits="userSpaceOnUse">
		<stop offset="0" style="stop-color:#FFFFFF"/>
		<stop offset="1" style="stop-color:#FFFFFF;stop-opacity:0"/>
	</radialGradient><path d="M 804.340002 454.779999 A 21.9 21.9 0 0 1 782.440002 476.679998 A 21.9 21.9 0 0 1 760.540003 454.779999 A 21.9 21.9 0 0 1 782.440002 432.879999 A 21.9 21.9 0 0 1 804.340002 454.779999 Z" class="st64" style="fill: url('#SVGID_58_');" transform="matrix(1, 0, 0, 1, 0, 0)"/><radialGradient id="SVGID_59_" cx="490.0789" cy="547.0657" r="21.8961" gradientUnits="userSpaceOnUse">
		<stop offset="0" style="stop-color:#FFFFFF"/>
		<stop offset="1" style="stop-color:#FFFFFF;stop-opacity:0"/>
	</radialGradient><path d="M 511.979986 547.070007 A 21.9 21.9 0 0 1 490.079987 568.970007 A 21.9 21.9 0 0 1 468.179987 547.070007 A 21.9 21.9 0 0 1 490.079987 525.170008 A 21.9 21.9 0 0 1 511.979986 547.070007 Z" class="st65" style="fill: url('#SVGID_59_');" transform="matrix(1, 0, 0, 1, 0, 0)"/><radialGradient id="SVGID_60_" cx="621.4355" cy="699.0598" r="21.8961" gradientUnits="userSpaceOnUse">
		<stop offset="0" style="stop-color:#FFFFFF"/>
		<stop offset="1" style="stop-color:#FFFFFF;stop-opacity:0"/>
	</radialGradient><path d="M 643.340002 699.059998 A 21.9 21.9 0 0 1 621.440002 720.959997 A 21.9 21.9 0 0 1 599.540003 699.059998 A 21.9 21.9 0 0 1 621.440002 677.159998 A 21.9 21.9 0 0 1 643.340002 699.059998 Z" class="st66" style="fill: url('#SVGID_60_');" transform="matrix(1, 0, 0, 1, 0, 0)"/><radialGradient id="SVGID_61_" cx="960.1379" cy="744.3334" r="21.8961" gradientUnits="userSpaceOnUse">
		<stop offset="0" style="stop-color:#FFFFFF"/>
		<stop offset="1" style="stop-color:#FFFFFF;stop-opacity:0"/>
	</radialGradient><path d="M 982.040014 744.330017 A 21.9 21.9 0 0 1 960.140015 766.230017 A 21.9 21.9 0 0 1 938.240015 744.330017 A 21.9 21.9 0 0 1 960.140015 722.430017 A 21.9 21.9 0 0 1 982.040014 744.330017 Z" class="st67" style="fill: url('#SVGID_61_');" transform="matrix(1, 0, 0, 1, 0, 0)"/><radialGradient id="SVGID_62_" cx="680.8232" cy="683.9744" r="44.6606" gradientUnits="userSpaceOnUse">
		<stop offset="0" style="stop-color:#FFFFFF"/>
		<stop offset="1" style="stop-color:#FFFFFF;stop-opacity:0"/>
	</radialGradient><path d="M 725.480007 683.969971 A 44.66 44.66 0 0 1 680.820007 728.629971 A 44.66 44.66 0 0 1 636.160007 683.969971 A 44.66 44.66 0 0 1 680.820007 639.309971 A 44.66 44.66 0 0 1 725.480007 683.969971 Z" class="st68" style="fill: url('#SVGID_62_');" transform="matrix(1, 0, 0, 1, 0, 0)"/><radialGradient id="SVGID_63_" cx="598.373" cy="616.9725" r="44.6606" gradientUnits="userSpaceOnUse">
		<stop offset="0" style="stop-color:#FFFFFF"/>
		<stop offset="1" style="stop-color:#FFFFFF;stop-opacity:0"/>
	</radialGradient><path d="M 643.029995 616.969971 A 44.66 44.66 0 0 1 598.369995 661.629971 A 44.66 44.66 0 0 1 553.709995 616.969971 A 44.66 44.66 0 0 1 598.369995 572.309971 A 44.66 44.66 0 0 1 643.029995 616.969971 Z" class="st69" style="fill: url('#SVGID_63_');" transform="matrix(1, 0, 0, 1, 0, 0)"/><radialGradient id="SVGID_64_" cx="473.3058" cy="869.5904" r="21.8961" gradientUnits="userSpaceOnUse">
		<stop offset="0" style="stop-color:#FFFFFF"/>
		<stop offset="1" style="stop-color:#FFFFFF;stop-opacity:0"/>
	</radialGradient><path d="M 495.209997 869.590027 A 21.9 21.9 0 0 1 473.309998 891.490026 A 21.9 21.9 0 0 1 451.409998 869.590027 A 21.9 21.9 0 0 1 473.309998 847.690027 A 21.9 21.9 0 0 1 495.209997 869.590027 Z" class="st70" style="fill: url('#SVGID_64_');" transform="matrix(1, 0, 0, 1, 0, 0)"/><radialGradient id="SVGID_65_" cx="1006.2863" cy="1008.5463" r="21.8961" gradientUnits="userSpaceOnUse">
		<stop offset="0" style="stop-color:#FFFFFF"/>
		<stop offset="1" style="stop-color:#FFFFFF;stop-opacity:0"/>
	</radialGradient><path d="M 1028.189978 1008.549988 A 21.9 21.9 0 0 1 1006.289978 1030.449987 A 21.9 21.9 0 0 1 984.389978 1008.549988 A 21.9 21.9 0 0 1 1006.289978 986.649988 A 21.9 21.9 0 0 1 1028.189978 1008.549988 Z" class="st71" style="fill: url('#SVGID_65_');" transform="matrix(1, 0, 0, 1, 0, 0)"/><radialGradient id="SVGID_66_" cx="600.8721" cy="412.0204" r="10.5262" gradientUnits="userSpaceOnUse">
		<stop offset="0" style="stop-color:#FFFFFF"/>
		<stop offset="1" style="stop-color:#FFFFFF;stop-opacity:0"/>
	</radialGradient><path d="M 611.399995 412.019989 A 10.53 10.53 0 0 1 600.869995 422.549989 A 10.53 10.53 0 0 1 590.339995 412.019989 A 10.53 10.53 0 0 1 600.869995 401.489989 A 10.53 10.53 0 0 1 611.399995 412.019989 Z" class="st72" style="fill: url('#SVGID_66_');" transform="matrix(1, 0, 0, 1, 0, 0)"/><radialGradient id="SVGID_67_" cx="731.6332" cy="277.1707" r="10.5262" gradientUnits="userSpaceOnUse">
		<stop offset="0" style="stop-color:#FFFFFF"/>
		<stop offset="1" style="stop-color:#FFFFFF;stop-opacity:0"/>
	</radialGradient><path d="M 742.160005 277.170013 A 10.53 10.53 0 0 1 731.630005 287.700013 A 10.53 10.53 0 0 1 721.100005 277.170013 A 10.53 10.53 0 0 1 731.630005 266.640014 A 10.53 10.53 0 0 1 742.160005 277.170013 Z" class="st73" style="fill: url('#SVGID_67_');" transform="matrix(1, 0, 0, 1, 0, 0)"/><radialGradient id="SVGID_68_" cx="537.6218" cy="244.2327" r="10.5262" gradientUnits="userSpaceOnUse">
		<stop offset="0" style="stop-color:#FFFFFF"/>
		<stop offset="1" style="stop-color:#FFFFFF;stop-opacity:0"/>
	</radialGradient><path d="M 548.149995 244.229996 A 10.53 10.53 0 0 1 537.619995 254.759995 A 10.53 10.53 0 0 1 527.089995 244.229996 A 10.53 10.53 0 0 1 537.619995 233.699996 A 10.53 10.53 0 0 1 548.149995 244.229996 Z" class="st74" style="fill: url('#SVGID_68_');" transform="matrix(1, 0, 0, 1, 0, 0)"/><radialGradient id="SVGID_69_" cx="341.3138" cy="438.8048" r="10.5262" gradientUnits="userSpaceOnUse">
		<stop offset="0" style="stop-color:#FFFFFF"/>
		<stop offset="1" style="stop-color:#FFFFFF;stop-opacity:0"/>
	</radialGradient><path d="M 351.839997 438.799988 A 10.53 10.53 0 0 1 341.309998 449.329988 A 10.53 10.53 0 0 1 330.779998 438.799988 A 10.53 10.53 0 0 1 341.309998 428.269988 A 10.53 10.53 0 0 1 351.839997 438.799988 Z" class="st75" style="fill: url('#SVGID_69_');" transform="matrix(1, 0, 0, 1, 0, 0)"/><radialGradient id="SVGID_70_" cx="446.9809" cy="595.9302" r="10.5262" gradientUnits="userSpaceOnUse">
		<stop offset="0" style="stop-color:#FFFFFF"/>
		<stop offset="1" style="stop-color:#FFFFFF;stop-opacity:0"/>
	</radialGradient><path d="M 457.510011 595.929993 A 10.53 10.53 0 0 1 446.980011 606.459992 A 10.53 10.53 0 0 1 436.450011 595.929993 A 10.53 10.53 0 0 1 446.980011 585.399993 A 10.53 10.53 0 0 1 457.510011 595.929993 Z" class="st76" style="fill: url('#SVGID_70_');" transform="matrix(1, 0, 0, 1, 0, 0)"/><radialGradient id="SVGID_71_" cx="707.0392" cy="546.6905" r="10.5262" gradientUnits="userSpaceOnUse">
		<stop offset="0" style="stop-color:#FFFFFF"/>
		<stop offset="1" style="stop-color:#FFFFFF;stop-opacity:0"/>
	</radialGradient><path d="M 717.569978 546.690002 A 10.53 10.53 0 0 1 707.039978 557.220002 A 10.53 10.53 0 0 1 696.509978 546.690002 A 10.53 10.53 0 0 1 707.039978 536.160003 A 10.53 10.53 0 0 1 717.569978 546.690002 Z" class="st77" style="fill: url('#SVGID_71_');" transform="matrix(1, 0, 0, 1, 0, 0)"/><radialGradient id="SVGID_72_" cx="490.0789" cy="401.7362" r="10.5262" gradientUnits="userSpaceOnUse">
		<stop offset="0" style="stop-color:#FFFFFF"/>
		<stop offset="1" style="stop-color:#FFFFFF;stop-opacity:0"/>
	</radialGradient><path d="M 500.609986 401.73999 A 10.53 10.53 0 0 1 490.079987 412.26999 A 10.53 10.53 0 0 1 479.549987 401.73999 A 10.53 10.53 0 0 1 490.079987 391.209991 A 10.53 10.53 0 0 1 500.609986 401.73999 Z" class="st78" style="fill: url('#SVGID_72_');" transform="matrix(1, 0, 0, 1, 0, 0)"/><radialGradient id="SVGID_73_" cx="597.8444" cy="297.5516" r="10.5262" gradientUnits="userSpaceOnUse">
		<stop offset="0" style="stop-color:#FFFFFF"/>
		<stop offset="1" style="stop-color:#FFFFFF;stop-opacity:0"/>
	</radialGradient><path d="M 608.370027 297.549988 A 10.53 10.53 0 0 1 597.840027 308.079988 A 10.53 10.53 0 0 1 587.310027 297.549988 A 10.53 10.53 0 0 1 597.840027 287.019988 A 10.53 10.53 0 0 1 608.370027 297.549988 Z" class="st79" style="fill: url('#SVGID_73_');" transform="matrix(1, 0, 0, 1, 0, 0)"/><radialGradient id="SVGID_74_" cx="841.8953" cy="365.1534" r="10.5262" gradientUnits="userSpaceOnUse">
		<stop offset="0" style="stop-color:#FFFFFF"/>
		<stop offset="1" style="stop-color:#FFFFFF;stop-opacity:0"/>
	</radialGradient><path d="M 852.430024 365.149994 A 10.53 10.53 0 0 1 841.900024 375.679994 A 10.53 10.53 0 0 1 831.370025 365.149994 A 10.53 10.53 0 0 1 841.900024 354.619994 A 10.53 10.53 0 0 1 852.430024 365.149994 Z" class="st80" style="fill: url('#SVGID_74_');" transform="matrix(1, 0, 0, 1, 0, 0)"/><radialGradient id="SVGID_75_" cx="536.285" cy="671.9635" r="10.5262" gradientUnits="userSpaceOnUse">
		<stop offset="0" style="stop-color:#FFFFFF"/>
		<stop offset="1" style="stop-color:#FFFFFF;stop-opacity:0"/>
	</radialGradient><path d="M 546.819978 671.960022 A 10.53 10.53 0 0 1 536.289978 682.490022 A 10.53 10.53 0 0 1 525.759978 671.960022 A 10.53 10.53 0 0 1 536.289978 661.430022 A 10.53 10.53 0 0 1 546.819978 671.960022 Z" class="st81" style="fill: url('#SVGID_75_');" transform="matrix(1, 0, 0, 1, 0, 0)"/><radialGradient id="SVGID_76_" cx="698.9739" cy="666.5025" r="10.5262" gradientUnits="userSpaceOnUse">
		<stop offset="0" style="stop-color:#FFFFFF"/>
		<stop offset="1" style="stop-color:#FFFFFF;stop-opacity:0"/>
	</radialGradient><path d="M 709.49997 666.5 A 10.53 10.53 0 0 1 698.969971 677.03 A 10.53 10.53 0 0 1 688.439971 666.5 A 10.53 10.53 0 0 1 698.969971 655.97 A 10.53 10.53 0 0 1 709.49997 666.5 Z" class="st82" style="fill: url('#SVGID_76_');" transform="matrix(1, 0, 0, 1, 0, 0)"/><path class="st4" d="M928.07,1290.79c4.46,0,4.46-6.91,0-6.91S923.61,1290.79,928.07,1290.79L928.07,1290.79z" style="fill: rgb(85, 207, 255);" transform="matrix(1, 0, 0, 1, 0, 0)"/><path class="st4" d="M884.51,1244.81c4.46,0,4.46-6.91,0-6.91C880.05,1237.9,880.05,1244.81,884.51,1244.81L884.51,1244.81z" style="fill: rgb(85, 207, 255);" transform="matrix(1, 0, 0, 1, 0, 0)"/><path class="st4" d="M824.01,1199.18c4.46,0,4.46-6.91,0-6.91S819.55,1199.18,824.01,1199.18L824.01,1199.18z" style="fill: rgb(85, 207, 255);" transform="matrix(1, 0, 0, 1, 0, 0)"/><path class="st4" d="M1008.27,1141.45c4.46,0,4.46-6.91,0-6.91C1003.81,1134.54,1003.81,1141.45,1008.27,1141.45L1008.27,1141.45z&#10;&#9;&#9;&#9;" style="fill: rgb(85, 207, 255);" transform="matrix(1, 0, 0, 1, 0, 0)"/><path class="st4" d="M1090.78,1168.18c4.46,0,4.46-6.91,0-6.91S1086.32,1168.18,1090.78,1168.18L1090.78,1168.18z" style="fill: rgb(85, 207, 255);" transform="matrix(1, 0, 0, 1, 0, 0)"/><path class="st4" d="M1199.09,1171.18c4.46,0,4.46-6.91,0-6.91C1194.64,1164.27,1194.64,1171.18,1199.09,1171.18L1199.09,1171.18z&#10;&#9;&#9;&#9;" style="fill: rgb(85, 207, 255);" transform="matrix(1, 0, 0, 1, 0, 0)"/><path class="st4" d="M1143.09,1211.28c4.46,0,4.46-6.91,0-6.91S1138.63,1211.28,1143.09,1211.28L1143.09,1211.28z" style="fill: rgb(85, 207, 255);" transform="matrix(1, 0, 0, 1, 0, 0)"/><path class="st4" d="M1171.44,909.14c4.46,0,4.46-6.91,0-6.91C1166.98,902.23,1166.98,909.14,1171.44,909.14L1171.44,909.14z" style="fill: rgb(85, 207, 255);" transform="matrix(1, 0, 0, 1, 0, 0)"/><path class="st4" d="M1181.12,1075.08c4.46,0,4.46-6.91,0-6.91S1176.66,1075.08,1181.12,1075.08L1181.12,1075.08z" style="fill: rgb(85, 207, 255);" transform="matrix(1, 0, 0, 1, 0, 0)"/><path class="st4" d="M1093.31,1059.17c4.46,0,4.46-6.91,0-6.91C1088.85,1052.26,1088.85,1059.17,1093.31,1059.17L1093.31,1059.17z&#10;&#9;&#9;&#9;" style="fill: rgb(85, 207, 255);" transform="matrix(1, 0, 0, 1, 0, 0)"/><path class="st4" d="M1103.68,964.45c4.46,0,4.46-6.91,0-6.91S1099.22,964.45,1103.68,964.45L1103.68,964.45z" style="fill: rgb(85, 207, 255);" transform="matrix(1, 0, 0, 1, 0, 0)"/><path class="st4" d="M1288.97,1000.41c4.46,0,4.46-6.91,0-6.91C1284.52,993.49,1284.52,1000.41,1288.97,1000.41L1288.97,1000.41z" style="fill: rgb(85, 207, 255);" transform="matrix(1, 0, 0, 1, 0, 0)"/><path class="st4" d="M1244.73,876.65c4.46,0,4.46-6.91,0-6.91C1240.27,869.73,1240.27,876.65,1244.73,876.65L1244.73,876.65z" style="fill: rgb(85, 207, 255);" transform="matrix(1, 0, 0, 1, 0, 0)"/><path class="st4" d="M1068.19,749.66c4.46,0,4.46-6.91,0-6.91C1063.73,742.75,1063.73,749.66,1068.19,749.66L1068.19,749.66z" style="fill: rgb(85, 207, 255);" transform="matrix(1, 0, 0, 1, 0, 0)"/><path class="st4" d="M1221.68,850.14c4.46,0,4.46-6.91,0-6.91C1217.22,843.23,1217.22,850.14,1221.68,850.14L1221.68,850.14z" style="fill: rgb(85, 207, 255);" transform="matrix(1, 0, 0, 1, 0, 0)"/><path class="st4" d="M1082.02,825.25c4.46,0,4.46-6.91,0-6.91C1077.56,818.34,1077.56,825.25,1082.02,825.25L1082.02,825.25z" style="fill: rgb(85, 207, 255);" transform="matrix(1, 0, 0, 1, 0, 0)"/><path class="st4" d="M993.98,782.39c4.46,0,4.46-6.91,0-6.91C989.52,775.47,989.52,782.39,993.98,782.39L993.98,782.39z" style="fill: rgb(85, 207, 255);" transform="matrix(1, 0, 0, 1, 0, 0)"/><path class="st4" d="M1056.21,892.55c4.46,0,4.46-6.91,0-6.91C1051.75,885.63,1051.75,892.55,1056.21,892.55L1056.21,892.55z" style="fill: rgb(85, 207, 255);" transform="matrix(1, 0, 0, 1, 0, 0)"/><path class="st4" d="M925.3,820.18c4.46,0,4.46-6.91,0-6.91S920.84,820.18,925.3,820.18L925.3,820.18z" style="fill: rgb(85, 207, 255);" transform="matrix(1, 0, 0, 1, 0, 0)"/><path class="st4" d="M580.07,761.64c4.46,0,4.46-6.91,0-6.91C575.61,754.73,575.61,761.64,580.07,761.64L580.07,761.64z" style="fill: rgb(85, 207, 255);" transform="matrix(1, 0, 0, 1, 0, 0)"/><path class="st4" d="M708.67,744.13c4.46,0,4.46-6.91,0-6.91S704.21,744.13,708.67,744.13L708.67,744.13z" style="fill: rgb(85, 207, 255);" transform="matrix(1, 0, 0, 1, 0, 0)"/><path class="st4" d="M630.77,808.2c4.46,0,4.46-6.91,0-6.91S626.31,808.2,630.77,808.2L630.77,808.2z" style="fill: rgb(85, 207, 255);" transform="matrix(1, 0, 0, 1, 0, 0)"/><path class="st4" d="M515.08,850.14c4.46,0,4.46-6.91,0-6.91C510.62,843.23,510.62,850.14,515.08,850.14L515.08,850.14z" style="fill: rgb(85, 207, 255);" transform="matrix(1, 0, 0, 1, 0, 0)"/><path class="st4" d="M445.94,814.65c4.46,0,4.46-6.91,0-6.91C441.48,807.74,441.48,814.65,445.94,814.65L445.94,814.65z" style="fill: rgb(85, 207, 255);" transform="matrix(1, 0, 0, 1, 0, 0)"/><path class="st4" d="M339.92,909.14c4.46,0,4.46-6.91,0-6.91C335.46,902.23,335.46,909.14,339.92,909.14L339.92,909.14z" style="fill: rgb(85, 207, 255);" transform="matrix(1, 0, 0, 1, 0, 0)"/><path class="st4" d="M433.49,918.36c4.46,0,4.46-6.91,0-6.91C429.03,911.45,429.03,918.36,433.49,918.36L433.49,918.36z" style="fill: rgb(85, 207, 255);" transform="matrix(1, 0, 0, 1, 0, 0)"/><path class="st4" d="M330.24,813.73c4.46,0,4.46-6.91,0-6.91C325.78,806.82,325.78,813.73,330.24,813.73L330.24,813.73z" style="fill: rgb(85, 207, 255);" transform="matrix(1, 0, 0, 1, 0, 0)"/><path class="st4" d="M226.53,974.13c4.46,0,4.46-6.91,0-6.91S222.08,974.13,226.53,974.13L226.53,974.13z" style="fill: rgb(85, 207, 255);" transform="matrix(1, 0, 0, 1, 0, 0)"/><path class="st4" d="M314.11,1008.24c4.46,0,4.46-6.91,0-6.91C309.65,1001.33,309.65,1008.24,314.11,1008.24L314.11,1008.24z" style="fill: rgb(85, 207, 255);" transform="matrix(1, 0, 0, 1, 0, 0)"/><path class="st4" d="M371.73,1125.32c4.46,0,4.46-6.91,0-6.91C367.27,1118.4,367.27,1125.32,371.73,1125.32L371.73,1125.32z" style="fill: rgb(85, 207, 255);" transform="matrix(1, 0, 0, 1, 0, 0)"/><path class="st4" d="M406.3,1012.85c4.46,0,4.46-6.91,0-6.91C401.84,1005.94,401.84,1012.85,406.3,1012.85L406.3,1012.85z" style="fill: rgb(85, 207, 255);" transform="matrix(1, 0, 0, 1, 0, 0)"/><path class="st4" d="M474.51,1119.33c4.46,0,4.46-6.91,0-6.91C470.05,1112.41,470.05,1119.33,474.51,1119.33L474.51,1119.33z" style="fill: rgb(85, 207, 255);" transform="matrix(1, 0, 0, 1, 0, 0)"/><path class="st4" d="M499.86,1207.82c4.46,0,4.46-6.91,0-6.91C495.41,1200.91,495.41,1207.82,499.86,1207.82L499.86,1207.82z" style="fill: rgb(85, 207, 255);" transform="matrix(1, 0, 0, 1, 0, 0)"/><path class="st4" d="M293.83,1148.82c4.46,0,4.46-6.91,0-6.91C289.37,1141.91,289.37,1148.82,293.83,1148.82L293.83,1148.82z" style="fill: rgb(85, 207, 255);" transform="matrix(1, 0, 0, 1, 0, 0)"/><path class="st4" d="M492.49,1265.9c4.46,0,4.46-6.91,0-6.91S488.03,1265.9,492.49,1265.9L492.49,1265.9z" style="fill: rgb(85, 207, 255);" transform="matrix(1, 0, 0, 1, 0, 0)"/><path class="st4" d="M645.98,1191.69c4.46,0,4.46-6.91,0-6.91S641.52,1191.69,645.98,1191.69L645.98,1191.69z" style="fill: rgb(85, 207, 255);" transform="matrix(1, 0, 0, 1, 0, 0)"/><path class="st4" d="M697.6,1252.99c4.46,0,4.46-6.91,0-6.91C693.14,1246.08,693.14,1252.99,697.6,1252.99L697.6,1252.99z" style="fill: rgb(85, 207, 255);" transform="matrix(1, 0, 0, 1, 0, 0)"/><path class="st4" d="M743.24,1306.92c4.46,0,4.46-6.91,0-6.91S738.78,1306.92,743.24,1306.92L743.24,1306.92z" style="fill: rgb(85, 207, 255);" transform="matrix(1, 0, 0, 1, 0, 0)"/><path class="st4" d="M687.46,1304.16c4.46,0,4.46-6.91,0-6.91C683,1297.24,683,1304.16,687.46,1304.16L687.46,1304.16z" style="fill: rgb(85, 207, 255);" transform="matrix(1, 0, 0, 1, 0, 0)"/><path class="st4" d="M853.4,1301.85c4.46,0,4.46-6.91,0-6.91S848.94,1301.85,853.4,1301.85L853.4,1301.85z" style="fill: rgb(85, 207, 255);" transform="matrix(1, 0, 0, 1, 0, 0)"/><path class="st4" d="M977.85,461.12c4.46,0,4.46-6.91,0-6.91C973.39,454.21,973.39,461.12,977.85,461.12L977.85,461.12z" style="fill: rgb(85, 207, 255);" transform="matrix(1, 0, 0, 1, 0, 0)"/><path class="st4" d="M692.99,450.06c4.46,0,4.46-6.91,0-6.91C688.54,443.14,688.54,450.06,692.99,450.06L692.99,450.06z" style="fill: rgb(85, 207, 255);" transform="matrix(1, 0, 0, 1, 0, 0)"/><path class="st4" d="M798.09,364.32c4.46,0,4.46-6.91,0-6.91S793.63,364.32,798.09,364.32L798.09,364.32z" style="fill: rgb(85, 207, 255);" transform="matrix(1, 0, 0, 1, 0, 0)"/><path class="st4" d="M444.09,463.88c4.46,0,4.46-6.91,0-6.91C439.63,456.97,439.63,463.88,444.09,463.88L444.09,463.88z" style="fill: rgb(85, 207, 255);" transform="matrix(1, 0, 0, 1, 0, 0)"/><path class="st4" d="M1024.86,552.38c4.46,0,4.46-6.91,0-6.91C1020.4,545.47,1020.4,552.38,1024.86,552.38L1024.86,552.38z" style="fill: rgb(85, 207, 255);" transform="matrix(1, 0, 0, 1, 0, 0)"/><path class="st4" d="M933.6,527.49c4.46,0,4.46-6.91,0-6.91C929.14,520.58,929.14,527.49,933.6,527.49L933.6,527.49z" style="fill: rgb(85, 207, 255);" transform="matrix(1, 0, 0, 1, 0, 0)"/><path class="st4" d="M883.82,734.91c4.46,0,4.46-6.91,0-6.91C879.36,728,879.36,734.91,883.82,734.91L883.82,734.91z" style="fill: rgb(85, 207, 255);" transform="matrix(1, 0, 0, 1, 0, 0)"/><path class="st4" d="M579.61,535.79c4.46,0,4.46-6.91,0-6.91C575.15,528.88,575.15,535.79,579.61,535.79L579.61,535.79z" style="fill: rgb(85, 207, 255);" transform="matrix(1, 0, 0, 1, 0, 0)"/><path class="st4" d="M366.66,270.29c4.46,0,4.46-6.91,0-6.91C362.2,263.38,362.2,270.29,366.66,270.29L366.66,270.29z" style="fill: rgb(85, 207, 255);" transform="matrix(1, 0, 0, 1, 0, 0)"/><path class="st4" d="M952.96,134.78c4.46,0,4.46-6.91,0-6.91C948.5,127.87,948.5,134.78,952.96,134.78L952.96,134.78z" style="fill: rgb(85, 207, 255);" transform="matrix(1, 0, 0, 1, 0, 0)"/><path class="st4" d="M941.9,336.67c4.46,0,4.46-6.91,0-6.91S937.44,336.67,941.9,336.67L941.9,336.67z" style="fill: rgb(85, 207, 255);" transform="matrix(1, 0, 0, 1, 0, 0)"/><path class="st4" d="M781.49,165.2c4.46,0,4.46-6.91,0-6.91C777.03,158.29,777.03,165.2,781.49,165.2L781.49,165.2z" style="fill: rgb(85, 207, 255);" transform="matrix(1, 0, 0, 1, 0, 0)"/><path class="st4" d="M355.59,674.07c4.46,0,4.46-6.91,0-6.91C351.14,667.15,351.14,674.07,355.59,674.07L355.59,674.07z" style="fill: rgb(85, 207, 255);" transform="matrix(1, 0, 0, 1, 0, 0)"/><path class="st4" d="M856.16,262c4.46,0,4.46-6.91,0-6.91C851.7,255.08,851.7,262,856.16,262L856.16,262z" style="fill: rgb(85, 207, 255);" transform="matrix(1, 0, 0, 1, 0, 0)"/><path class="st4" d="M510.47,123.72c4.46,0,4.46-6.91,0-6.91C506.01,116.81,506.01,123.72,510.47,123.72L510.47,123.72z" style="fill: rgb(85, 207, 255);" transform="matrix(1, 0, 0, 1, 0, 0)"/>
</svg>